<svg width="148" height="37" viewBox="0 0 148 37" fill="none" xmlns="http://www.w3.org/2000/svg">
<rect width="148" height="37" fill="url(#paint0_linear_43_4126)"/>
<path d="M24.162 23.51V15.096H19.472L19.388 17.476C19.36 18.2133 19.3133 18.9227 19.248 19.604C19.192 20.276 19.0987 20.8827 18.968 21.424C18.8467 21.956 18.6787 22.39 18.464 22.726C18.2587 23.062 17.988 23.258 17.652 23.314L16.518 23.104C16.8913 23.1227 17.1993 22.9873 17.442 22.698C17.694 22.4087 17.8853 22.0027 18.016 21.48C18.156 20.9573 18.2587 20.346 18.324 19.646C18.3893 18.946 18.436 18.19 18.464 17.378L18.576 14.2H25.184V23.51H24.162ZM16.154 26.198L16.168 23.104H26.654V26.198H25.688V24H17.134L17.12 26.198H16.154ZM31.3482 24.07C30.6388 24.07 29.9995 23.9113 29.4302 23.594C28.8702 23.2673 28.4268 22.824 28.1002 22.264C27.7735 21.6947 27.6102 21.046 27.6102 20.318C27.6102 19.5807 27.7735 18.932 28.1002 18.372C28.4268 17.812 28.8702 17.3733 29.4302 17.056C29.9902 16.7387 30.6295 16.58 31.3482 16.58C32.0762 16.58 32.7202 16.7387 33.2802 17.056C33.8495 17.3733 34.2928 17.812 34.6102 18.372C34.9368 18.932 35.1002 19.5807 35.1002 20.318C35.1002 21.046 34.9368 21.6947 34.6102 22.264C34.2928 22.824 33.8495 23.2673 33.2802 23.594C32.7108 23.9113 32.0668 24.07 31.3482 24.07ZM31.3482 23.188C31.8802 23.188 32.3515 23.0713 32.7622 22.838C33.1728 22.5953 33.4948 22.2593 33.7282 21.83C33.9708 21.3913 34.0922 20.8873 34.0922 20.318C34.0922 19.7393 33.9708 19.2353 33.7282 18.806C33.4948 18.3767 33.1728 18.0453 32.7622 17.812C32.3515 17.5693 31.8848 17.448 31.3622 17.448C30.8395 17.448 30.3728 17.5693 29.9622 17.812C29.5515 18.0453 29.2248 18.3767 28.9822 18.806C28.7395 19.2353 28.6182 19.7393 28.6182 20.318C28.6182 20.8873 28.7395 21.3913 28.9822 21.83C29.2248 22.2593 29.5515 22.5953 29.9622 22.838C30.3728 23.0713 30.8348 23.188 31.3482 23.188ZM40.5285 24.084C39.9312 24.084 39.3992 23.986 38.9325 23.79C38.4752 23.594 38.0832 23.2953 37.7565 22.894C37.4299 22.4927 37.1825 21.998 37.0145 21.41C36.8465 20.8127 36.7625 20.122 36.7625 19.338C36.7625 18.638 36.8279 18.0267 36.9585 17.504C37.0892 16.972 37.2712 16.5147 37.5045 16.132C37.7379 15.7493 38.0085 15.4273 38.3165 15.166C38.6339 14.8953 38.9745 14.6807 39.3385 14.522C39.7119 14.354 40.0945 14.228 40.4865 14.144L43.7905 13.374L43.9585 14.298L40.8505 14.998C40.6545 15.0447 40.4165 15.11 40.1365 15.194C39.8659 15.278 39.5859 15.404 39.2965 15.572C39.0165 15.74 38.7552 15.9733 38.5125 16.272C38.2699 16.5707 38.0739 16.958 37.9245 17.434C37.7845 17.9007 37.7145 18.484 37.7145 19.184C37.7145 19.3333 37.7192 19.4547 37.7285 19.548C37.7379 19.632 37.7472 19.7253 37.7565 19.828C37.7752 19.9213 37.7892 20.0613 37.7985 20.248L37.3645 19.884C37.4672 19.3147 37.6772 18.82 37.9945 18.4C38.3119 17.9707 38.7085 17.6393 39.1845 17.406C39.6699 17.1633 40.2065 17.042 40.7945 17.042C41.4759 17.042 42.0825 17.1913 42.6145 17.49C43.1465 17.7793 43.5619 18.1853 43.8605 18.708C44.1685 19.2307 44.3225 19.8373 44.3225 20.528C44.3225 21.2093 44.1639 21.8207 43.8465 22.362C43.5385 22.9033 43.0999 23.328 42.5305 23.636C41.9612 23.9347 41.2939 24.084 40.5285 24.084ZM40.6405 23.258C41.1632 23.258 41.6252 23.1413 42.0265 22.908C42.4279 22.6653 42.7405 22.3387 42.9645 21.928C43.1979 21.5173 43.3145 21.0553 43.3145 20.542C43.3145 20.038 43.1979 19.59 42.9645 19.198C42.7405 18.806 42.4279 18.498 42.0265 18.274C41.6252 18.0407 41.1585 17.924 40.6265 17.924C40.1039 17.924 39.6419 18.036 39.2405 18.26C38.8392 18.4747 38.5219 18.778 38.2885 19.17C38.0645 19.562 37.9525 20.0147 37.9525 20.528C37.9525 21.0413 38.0645 21.5033 38.2885 21.914C38.5219 22.3247 38.8392 22.6513 39.2405 22.894C39.6512 23.1367 40.1179 23.258 40.6405 23.258ZM50.976 24V22.376L50.934 22.11V19.394C50.934 18.7687 50.7567 18.288 50.402 17.952C50.0567 17.616 49.5387 17.448 48.848 17.448C48.372 17.448 47.9194 17.5273 47.49 17.686C47.0607 17.8447 46.6967 18.0547 46.398 18.316L45.95 17.574C46.3234 17.2567 46.7714 17.014 47.294 16.846C47.8167 16.6687 48.3674 16.58 48.946 16.58C49.898 16.58 50.6307 16.818 51.144 17.294C51.6667 17.7607 51.928 18.4747 51.928 19.436V24H50.976ZM48.442 24.07C47.8914 24.07 47.4107 23.9813 47 23.804C46.5987 23.6173 46.2907 23.3653 46.076 23.048C45.8614 22.7213 45.754 22.348 45.754 21.928C45.754 21.5453 45.8427 21.2 46.02 20.892C46.2067 20.5747 46.5054 20.3227 46.916 20.136C47.336 19.94 47.896 19.842 48.596 19.842H51.13V20.584H48.624C47.9147 20.584 47.42 20.71 47.14 20.962C46.8694 21.214 46.734 21.5267 46.734 21.9C46.734 22.32 46.8974 22.656 47.224 22.908C47.5507 23.16 48.008 23.286 48.596 23.286C49.156 23.286 49.6367 23.16 50.038 22.908C50.4487 22.6467 50.7474 22.2733 50.934 21.788L51.158 22.474C50.9714 22.9593 50.6447 23.3467 50.178 23.636C49.7207 23.9253 49.142 24.07 48.442 24.07ZM54.5742 24V16.65H57.8222C58.6528 16.65 59.3062 16.8087 59.7822 17.126C60.2675 17.4433 60.5102 17.91 60.5102 18.526C60.5102 19.1233 60.2815 19.5853 59.8242 19.912C59.3668 20.2293 58.7648 20.388 58.0182 20.388L58.2142 20.094C59.0915 20.094 59.7355 20.2573 60.1462 20.584C60.5568 20.9107 60.7622 21.382 60.7622 21.998C60.7622 22.6327 60.5288 23.1273 60.0622 23.482C59.6048 23.8273 58.8908 24 57.9202 24H54.5742ZM55.5402 23.216H57.8782C58.5035 23.216 58.9748 23.118 59.2922 22.922C59.6188 22.7167 59.7822 22.39 59.7822 21.942C59.7822 21.494 59.6375 21.1673 59.3482 20.962C59.0588 20.7567 58.6015 20.654 57.9762 20.654H55.5402V23.216ZM55.5402 19.912H57.7522C58.3215 19.912 58.7555 19.8047 59.0542 19.59C59.3622 19.3753 59.5162 19.0627 59.5162 18.652C59.5162 18.2413 59.3622 17.9333 59.0542 17.728C58.7555 17.5227 58.3215 17.42 57.7522 17.42H55.5402V19.912ZM63.0917 24V16.65H64.0857V22.488L68.9997 16.65H69.8817V24H68.8877V18.148L63.9877 24H63.0917ZM74.1304 24V17.252L74.3824 17.518H71.3444V16.65H77.9104V17.518H74.8724L75.1244 17.252V24H74.1304ZM82.5116 19.24C83.4356 19.2493 84.1356 19.4547 84.6116 19.856C85.0969 20.2573 85.3396 20.836 85.3396 21.592C85.3396 22.376 85.0783 22.978 84.5556 23.398C84.0423 23.818 83.2956 24.0233 82.3156 24.014L79.3476 24V16.65H80.3416V19.212L82.5116 19.24ZM82.2596 23.258C82.9409 23.2673 83.4543 23.132 83.7996 22.852C84.1543 22.5627 84.3316 22.1427 84.3316 21.592C84.3316 21.0413 84.1589 20.64 83.8136 20.388C83.4683 20.1267 82.9503 19.9913 82.2596 19.982L80.3416 19.954V23.23L82.2596 23.258ZM93.9243 24.07C93.215 24.07 92.5757 23.9113 92.0063 23.594C91.4463 23.2673 91.003 22.824 90.6763 22.264C90.3497 21.6947 90.1863 21.046 90.1863 20.318C90.1863 19.5807 90.3497 18.932 90.6763 18.372C91.003 17.812 91.4463 17.3733 92.0063 17.056C92.5663 16.7387 93.2057 16.58 93.9243 16.58C94.6523 16.58 95.2963 16.7387 95.8563 17.056C96.4257 17.3733 96.869 17.812 97.1863 18.372C97.513 18.932 97.6763 19.5807 97.6763 20.318C97.6763 21.046 97.513 21.6947 97.1863 22.264C96.869 22.824 96.4257 23.2673 95.8563 23.594C95.287 23.9113 94.643 24.07 93.9243 24.07ZM93.9243 23.188C94.4563 23.188 94.9277 23.0713 95.3383 22.838C95.749 22.5953 96.071 22.2593 96.3043 21.83C96.547 21.3913 96.6683 20.8873 96.6683 20.318C96.6683 19.7393 96.547 19.2353 96.3043 18.806C96.071 18.3767 95.749 18.0453 95.3383 17.812C94.9277 17.5693 94.461 17.448 93.9383 17.448C93.4157 17.448 92.949 17.5693 92.5383 17.812C92.1277 18.0453 91.801 18.3767 91.5583 18.806C91.3157 19.2353 91.1943 19.7393 91.1943 20.318C91.1943 20.8873 91.3157 21.3913 91.5583 21.83C91.801 22.2593 92.1277 22.5953 92.5383 22.838C92.949 23.0713 93.411 23.188 93.9243 23.188ZM100.927 24V17.252L101.179 17.518H98.1413V16.65H104.707V17.518H101.669L101.921 17.252V24H100.927ZM107.913 24.084C107.381 24.084 106.854 24.0093 106.331 23.86C105.809 23.7107 105.347 23.482 104.945 23.174L105.267 22.432C105.622 22.6933 106.033 22.894 106.499 23.034C106.966 23.1647 107.428 23.23 107.885 23.23C108.343 23.2207 108.739 23.1553 109.075 23.034C109.411 22.9127 109.673 22.7447 109.859 22.53C110.046 22.3153 110.139 22.0727 110.139 21.802C110.139 21.41 109.962 21.1067 109.607 20.892C109.253 20.668 108.767 20.556 108.151 20.556H106.891V19.828H108.081C108.445 19.828 108.767 19.7813 109.047 19.688C109.327 19.5947 109.542 19.4593 109.691 19.282C109.85 19.1047 109.929 18.8947 109.929 18.652C109.929 18.3907 109.836 18.1667 109.649 17.98C109.472 17.7933 109.225 17.6533 108.907 17.56C108.59 17.4667 108.231 17.42 107.829 17.42C107.465 17.4293 107.087 17.4853 106.695 17.588C106.303 17.6813 105.916 17.826 105.533 18.022L105.253 17.252C105.683 17.028 106.107 16.86 106.527 16.748C106.957 16.6267 107.386 16.566 107.815 16.566C108.403 16.5473 108.931 16.6173 109.397 16.776C109.873 16.9347 110.251 17.1633 110.531 17.462C110.811 17.7513 110.951 18.1013 110.951 18.512C110.951 18.876 110.839 19.1933 110.615 19.464C110.391 19.7347 110.093 19.9447 109.719 20.094C109.346 20.2433 108.921 20.318 108.445 20.318L108.487 20.052C109.327 20.052 109.981 20.2153 110.447 20.542C110.923 20.8687 111.161 21.312 111.161 21.872C111.161 22.3107 111.017 22.698 110.727 23.034C110.438 23.3607 110.046 23.6173 109.551 23.804C109.066 23.9907 108.52 24.084 107.913 24.084ZM120.586 24V16.65H121.58V24H120.586ZM116.512 19.24C117.436 19.2493 118.141 19.4547 118.626 19.856C119.111 20.2573 119.354 20.836 119.354 21.592C119.354 22.376 119.093 22.978 118.57 23.398C118.047 23.818 117.301 24.0233 116.33 24.014L113.418 24V16.65H114.412V19.212L116.512 19.24ZM116.26 23.258C116.951 23.2673 117.469 23.132 117.814 22.852C118.169 22.5627 118.346 22.1427 118.346 21.592C118.346 21.0413 118.173 20.64 117.828 20.388C117.483 20.1267 116.96 19.9913 116.26 19.982L114.412 19.954V23.23L116.26 23.258ZM124.41 24V16.65H127.658C128.489 16.65 129.142 16.8087 129.618 17.126C130.103 17.4433 130.346 17.91 130.346 18.526C130.346 19.1233 130.117 19.5853 129.66 19.912C129.203 20.2293 128.601 20.388 127.854 20.388L128.05 20.094C128.927 20.094 129.571 20.2573 129.982 20.584C130.393 20.9107 130.598 21.382 130.598 21.998C130.598 22.6327 130.365 23.1273 129.898 23.482C129.441 23.8273 128.727 24 127.756 24H124.41ZM125.376 23.216H127.714C128.339 23.216 128.811 23.118 129.128 22.922C129.455 22.7167 129.618 22.39 129.618 21.942C129.618 21.494 129.473 21.1673 129.184 20.962C128.895 20.7567 128.437 20.654 127.812 20.654H125.376V23.216ZM125.376 19.912H127.588C128.157 19.912 128.591 19.8047 128.89 19.59C129.198 19.3753 129.352 19.0627 129.352 18.652C129.352 18.2413 129.198 17.9333 128.89 17.728C128.591 17.5227 128.157 17.42 127.588 17.42H125.376V19.912Z" fill="#0E2421"/>
<defs>
<linearGradient id="paint0_linear_43_4126" x1="0" y1="18.5" x2="148" y2="18.5" gradientUnits="userSpaceOnUse">
<stop stop-color="#E4DAC9"/>
<stop offset="1" stop-color="#D8BA9E"/>
</linearGradient>
</defs>
</svg>
