<svg width="112" height="16" viewBox="0 0 112 16" fill="none" xmlns="http://www.w3.org/2000/svg">
<path d="M8.75684 3.04688V13H7.44434V4.12695H2.53613V13H1.2168V3.04688H8.75684ZM10.623 9.38379V9.22656C10.623 8.69336 10.7005 8.19889 10.8555 7.74316C11.0104 7.28288 11.2337 6.88411 11.5254 6.54688C11.8171 6.20508 12.1702 5.94076 12.585 5.75391C12.9997 5.5625 13.4645 5.4668 13.9795 5.4668C14.499 5.4668 14.9661 5.5625 15.3809 5.75391C15.8001 5.94076 16.1556 6.20508 16.4473 6.54688C16.7435 6.88411 16.9691 7.28288 17.124 7.74316C17.279 8.19889 17.3564 8.69336 17.3564 9.22656V9.38379C17.3564 9.91699 17.279 10.4115 17.124 10.8672C16.9691 11.3229 16.7435 11.7217 16.4473 12.0635C16.1556 12.4007 15.8024 12.665 15.3877 12.8564C14.9775 13.0433 14.5127 13.1367 13.9932 13.1367C13.4736 13.1367 13.0065 13.0433 12.5918 12.8564C12.1771 12.665 11.8216 12.4007 11.5254 12.0635C11.2337 11.7217 11.0104 11.3229 10.8555 10.8672C10.7005 10.4115 10.623 9.91699 10.623 9.38379ZM11.8877 9.22656V9.38379C11.8877 9.75293 11.931 10.1016 12.0176 10.4297C12.1042 10.7533 12.234 11.0404 12.4072 11.291C12.585 11.5417 12.806 11.7399 13.0703 11.8857C13.3346 12.027 13.6423 12.0977 13.9932 12.0977C14.3395 12.0977 14.6426 12.027 14.9023 11.8857C15.1667 11.7399 15.3854 11.5417 15.5586 11.291C15.7318 11.0404 15.8617 10.7533 15.9482 10.4297C16.0394 10.1016 16.085 9.75293 16.085 9.38379V9.22656C16.085 8.86198 16.0394 8.5179 15.9482 8.19434C15.8617 7.86621 15.7295 7.57682 15.5518 7.32617C15.3786 7.07096 15.1598 6.87044 14.8955 6.72461C14.6357 6.57878 14.3304 6.50586 13.9795 6.50586C13.6331 6.50586 13.3278 6.57878 13.0635 6.72461C12.8037 6.87044 12.585 7.07096 12.4072 7.32617C12.234 7.57682 12.1042 7.86621 12.0176 8.19434C11.931 8.5179 11.8877 8.86198 11.8877 9.22656ZM19.7832 5.60352H21.0479L20.9385 8.37207C20.9111 9.07389 20.8314 9.68001 20.6992 10.1904C20.5671 10.7008 20.3984 11.1361 20.1934 11.4961C19.9883 11.8516 19.7581 12.1501 19.5029 12.3916C19.2523 12.6331 18.9925 12.8359 18.7236 13H18.0947L18.1289 11.9678L18.3887 11.9609C18.5391 11.7832 18.6849 11.6009 18.8262 11.4141C18.9674 11.2227 19.0973 10.9971 19.2158 10.7373C19.3343 10.473 19.4323 10.1517 19.5098 9.77344C19.5918 9.39062 19.6442 8.9235 19.667 8.37207L19.7832 5.60352ZM20.0977 5.60352H24.5479V13H23.2832V6.77246H20.0977V5.60352ZM17.8076 11.9609H25.498V15.1807H24.2334V13H19.0723V15.1807H17.8008L17.8076 11.9609ZM28.1641 7.02539V15.8438H26.8926V5.60352H28.0547L28.1641 7.02539ZM33.1475 9.24023V9.38379C33.1475 9.92155 33.0837 10.4206 32.9561 10.8809C32.8285 11.3366 32.6416 11.7331 32.3955 12.0703C32.154 12.4076 31.8555 12.6696 31.5 12.8564C31.1445 13.0433 30.7367 13.1367 30.2764 13.1367C29.807 13.1367 29.3923 13.0592 29.0322 12.9043C28.6722 12.7493 28.3669 12.5238 28.1162 12.2275C27.8656 11.9313 27.665 11.5758 27.5146 11.1611C27.3688 10.7464 27.2686 10.2793 27.2139 9.75977V8.99414C27.2686 8.44727 27.3711 7.95736 27.5215 7.52441C27.6719 7.09147 27.8701 6.72233 28.1162 6.41699C28.3669 6.1071 28.6699 5.8724 29.0254 5.71289C29.3809 5.54883 29.791 5.4668 30.2559 5.4668C30.7207 5.4668 31.1331 5.55794 31.4932 5.74023C31.8532 5.91797 32.1562 6.17318 32.4023 6.50586C32.6484 6.83854 32.833 7.2373 32.9561 7.70215C33.0837 8.16243 33.1475 8.67513 33.1475 9.24023ZM31.876 9.38379V9.24023C31.876 8.87109 31.8372 8.52474 31.7598 8.20117C31.6823 7.87305 31.5615 7.58594 31.3975 7.33984C31.238 7.08919 31.0329 6.89323 30.7822 6.75195C30.5316 6.60612 30.2331 6.5332 29.8867 6.5332C29.5677 6.5332 29.2897 6.58789 29.0527 6.69727C28.8203 6.80664 28.6221 6.95475 28.458 7.1416C28.2939 7.32389 28.1595 7.53353 28.0547 7.77051C27.9544 8.00293 27.8792 8.24447 27.8291 8.49512V10.2656C27.9202 10.5846 28.0479 10.8854 28.2119 11.168C28.376 11.446 28.5947 11.6715 28.8682 11.8447C29.1416 12.0133 29.4857 12.0977 29.9004 12.0977C30.2422 12.0977 30.5361 12.027 30.7822 11.8857C31.0329 11.7399 31.238 11.5417 31.3975 11.291C31.5615 11.0404 31.6823 10.7533 31.7598 10.4297C31.8372 10.1016 31.876 9.75293 31.876 9.38379ZM34.4258 9.38379V9.22656C34.4258 8.69336 34.5033 8.19889 34.6582 7.74316C34.8132 7.28288 35.0365 6.88411 35.3281 6.54688C35.6198 6.20508 35.973 5.94076 36.3877 5.75391C36.8024 5.5625 37.2673 5.4668 37.7822 5.4668C38.3018 5.4668 38.7689 5.5625 39.1836 5.75391C39.6029 5.94076 39.9583 6.20508 40.25 6.54688C40.5462 6.88411 40.7718 7.28288 40.9268 7.74316C41.0817 8.19889 41.1592 8.69336 41.1592 9.22656V9.38379C41.1592 9.91699 41.0817 10.4115 40.9268 10.8672C40.7718 11.3229 40.5462 11.7217 40.25 12.0635C39.9583 12.4007 39.6051 12.665 39.1904 12.8564C38.7803 13.0433 38.3154 13.1367 37.7959 13.1367C37.2764 13.1367 36.8092 13.0433 36.3945 12.8564C35.9798 12.665 35.6243 12.4007 35.3281 12.0635C35.0365 11.7217 34.8132 11.3229 34.6582 10.8672C34.5033 10.4115 34.4258 9.91699 34.4258 9.38379ZM35.6904 9.22656V9.38379C35.6904 9.75293 35.7337 10.1016 35.8203 10.4297C35.9069 10.7533 36.0368 11.0404 36.21 11.291C36.3877 11.5417 36.6087 11.7399 36.873 11.8857C37.1374 12.027 37.445 12.0977 37.7959 12.0977C38.1423 12.0977 38.4453 12.027 38.7051 11.8857C38.9694 11.7399 39.1882 11.5417 39.3613 11.291C39.5345 11.0404 39.6644 10.7533 39.751 10.4297C39.8421 10.1016 39.8877 9.75293 39.8877 9.38379V9.22656C39.8877 8.86198 39.8421 8.5179 39.751 8.19434C39.6644 7.86621 39.5322 7.57682 39.3545 7.32617C39.1813 7.07096 38.9626 6.87044 38.6982 6.72461C38.4385 6.57878 38.1331 6.50586 37.7822 6.50586C37.4359 6.50586 37.1305 6.57878 36.8662 6.72461C36.6064 6.87044 36.3877 7.07096 36.21 7.32617C36.0368 7.57682 35.9069 7.86621 35.8203 8.19434C35.7337 8.5179 35.6904 8.86198 35.6904 9.22656ZM47.4893 2.38379H48.5283C48.5283 2.8304 48.46 3.18587 48.3232 3.4502C48.1865 3.70996 47.9997 3.91048 47.7627 4.05176C47.5303 4.19303 47.266 4.30013 46.9697 4.37305C46.6781 4.44596 46.375 4.5166 46.0605 4.58496C45.6686 4.66699 45.304 4.79688 44.9668 4.97461C44.6341 5.14779 44.347 5.39388 44.1055 5.71289C43.8685 6.0319 43.693 6.44661 43.5791 6.95703C43.4697 7.46745 43.4401 8.09863 43.4902 8.85059V9.47949H42.4512V8.85059C42.4512 8.00749 42.5309 7.27148 42.6904 6.64258C42.8545 6.01367 43.0846 5.48275 43.3809 5.0498C43.6771 4.61686 44.028 4.27279 44.4336 4.01758C44.8438 3.76237 45.2949 3.58691 45.7871 3.49121C46.1426 3.42285 46.4479 3.34993 46.7031 3.27246C46.9583 3.19043 47.152 3.08105 47.2842 2.94434C47.4209 2.80762 47.4893 2.62077 47.4893 2.38379ZM45.9922 6.02734C46.4753 6.02734 46.9059 6.11165 47.2842 6.28027C47.6624 6.44889 47.9837 6.68359 48.248 6.98438C48.5124 7.28516 48.7129 7.64062 48.8496 8.05078C48.9909 8.45638 49.0615 8.89844 49.0615 9.37695V9.52734C49.0615 10.0423 48.9863 10.5208 48.8359 10.9629C48.6901 11.4004 48.4736 11.7832 48.1865 12.1113C47.904 12.4349 47.5576 12.6878 47.1475 12.8701C46.7419 13.0524 46.2793 13.1436 45.7598 13.1436C45.2402 13.1436 44.7754 13.0524 44.3652 12.8701C43.9596 12.6878 43.6133 12.4349 43.3262 12.1113C43.0391 11.7832 42.8203 11.4004 42.6699 10.9629C42.5241 10.5208 42.4512 10.0423 42.4512 9.52734V9.37695C42.4512 9.26302 42.4717 9.15137 42.5127 9.04199C42.5537 8.93262 42.6038 8.82096 42.6631 8.70703C42.7269 8.5931 42.7839 8.47233 42.834 8.34473C43.0026 7.93457 43.2327 7.55404 43.5244 7.20312C43.8206 6.85221 44.1738 6.56966 44.584 6.35547C44.9987 6.13672 45.4681 6.02734 45.9922 6.02734ZM45.7461 7.05957C45.2812 7.05957 44.8984 7.16667 44.5977 7.38086C44.3014 7.59505 44.0804 7.87988 43.9346 8.23535C43.7887 8.58626 43.7158 8.9668 43.7158 9.37695V9.52734C43.7158 9.8737 43.7568 10.2018 43.8389 10.5117C43.9209 10.8216 44.0439 11.0973 44.208 11.3389C44.3766 11.5758 44.5885 11.7627 44.8438 11.8994C45.1035 12.0361 45.4089 12.1045 45.7598 12.1045C46.1107 12.1045 46.4137 12.0361 46.6689 11.8994C46.9242 11.7627 47.1338 11.5758 47.2979 11.3389C47.4619 11.0973 47.585 10.8216 47.667 10.5117C47.749 10.2018 47.79 9.8737 47.79 9.52734V9.37695C47.79 9.06706 47.749 8.77311 47.667 8.49512C47.585 8.21712 47.4596 7.97103 47.291 7.75684C47.127 7.54264 46.915 7.37402 46.6553 7.25098C46.4001 7.12337 46.097 7.05957 45.7461 7.05957ZM55.3916 8.80957V9.83496H51.4814V8.80957H55.3916ZM51.748 5.60352V13H50.4834V5.60352H51.748ZM56.417 5.60352V13H55.1455V5.60352H56.417ZM61.5234 13.1367C61.0085 13.1367 60.5413 13.0501 60.1221 12.877C59.7074 12.6992 59.3496 12.4508 59.0488 12.1318C58.7526 11.8128 58.5247 11.4346 58.3652 10.9971C58.2057 10.5596 58.126 10.0811 58.126 9.56152V9.27441C58.126 8.67285 58.2148 8.13737 58.3926 7.66797C58.5703 7.19401 58.8118 6.79297 59.1172 6.46484C59.4225 6.13672 59.7689 5.88835 60.1562 5.71973C60.5436 5.55111 60.9447 5.4668 61.3594 5.4668C61.888 5.4668 62.3438 5.55794 62.7266 5.74023C63.1139 5.92253 63.4307 6.17773 63.6768 6.50586C63.9229 6.82943 64.1051 7.21224 64.2236 7.6543C64.3421 8.0918 64.4014 8.57031 64.4014 9.08984V9.65723H58.8779V8.625H63.1367V8.5293C63.1185 8.20117 63.0501 7.88216 62.9316 7.57227C62.8177 7.26237 62.6354 7.00716 62.3848 6.80664C62.1341 6.60612 61.7923 6.50586 61.3594 6.50586C61.0723 6.50586 60.8079 6.56738 60.5664 6.69043C60.3249 6.80892 60.1175 6.98665 59.9443 7.22363C59.7712 7.46061 59.6367 7.75 59.541 8.0918C59.4453 8.43359 59.3975 8.8278 59.3975 9.27441V9.56152C59.3975 9.91243 59.4453 10.2428 59.541 10.5527C59.6413 10.8581 59.7848 11.127 59.9717 11.3594C60.1631 11.5918 60.3932 11.7741 60.6621 11.9062C60.9355 12.0384 61.2454 12.1045 61.5918 12.1045C62.0384 12.1045 62.4167 12.0133 62.7266 11.8311C63.0365 11.6488 63.3076 11.4049 63.54 11.0996L64.3057 11.708C64.1462 11.9495 63.9434 12.1797 63.6973 12.3984C63.4512 12.6172 63.1481 12.7949 62.7881 12.9316C62.4326 13.0684 62.0111 13.1367 61.5234 13.1367ZM68.9473 13.1367C68.4323 13.1367 67.9652 13.0501 67.5459 12.877C67.1312 12.6992 66.7734 12.4508 66.4727 12.1318C66.1764 11.8128 65.9486 11.4346 65.7891 10.9971C65.6296 10.5596 65.5498 10.0811 65.5498 9.56152V9.27441C65.5498 8.67285 65.6387 8.13737 65.8164 7.66797C65.9941 7.19401 66.2357 6.79297 66.541 6.46484C66.8464 6.13672 67.1927 5.88835 67.5801 5.71973C67.9674 5.55111 68.3685 5.4668 68.7832 5.4668C69.3118 5.4668 69.7676 5.55794 70.1504 5.74023C70.5378 5.92253 70.8545 6.17773 71.1006 6.50586C71.3467 6.82943 71.529 7.21224 71.6475 7.6543C71.766 8.0918 71.8252 8.57031 71.8252 9.08984V9.65723H66.3018V8.625H70.5605V8.5293C70.5423 8.20117 70.474 7.88216 70.3555 7.57227C70.2415 7.26237 70.0592 7.00716 69.8086 6.80664C69.5579 6.60612 69.2161 6.50586 68.7832 6.50586C68.4961 6.50586 68.2318 6.56738 67.9902 6.69043C67.7487 6.80892 67.5413 6.98665 67.3682 7.22363C67.195 7.46061 67.0605 7.75 66.9648 8.0918C66.8691 8.43359 66.8213 8.8278 66.8213 9.27441V9.56152C66.8213 9.91243 66.8691 10.2428 66.9648 10.5527C67.0651 10.8581 67.2087 11.127 67.3955 11.3594C67.5869 11.5918 67.8171 11.7741 68.0859 11.9062C68.3594 12.0384 68.6693 12.1045 69.0156 12.1045C69.4622 12.1045 69.8405 12.0133 70.1504 11.8311C70.4603 11.6488 70.7314 11.4049 70.9639 11.0996L71.7295 11.708C71.57 11.9495 71.3672 12.1797 71.1211 12.3984C70.875 12.6172 70.5719 12.7949 70.2119 12.9316C69.8564 13.0684 69.4349 13.1367 68.9473 13.1367Z" fill="#E4DAC9" fill-opacity="0.5"/>
<path d="M111.128 9.17678C111.226 9.07915 111.226 8.92085 111.128 8.82322L109.537 7.23223C109.44 7.1346 109.281 7.1346 109.184 7.23223C109.086 7.32986 109.086 7.48816 109.184 7.58579L110.598 9L109.184 10.4142C109.086 10.5118 109.086 10.6701 109.184 10.7678C109.281 10.8654 109.44 10.8654 109.537 10.7678L111.128 9.17678ZM85.7354 9.25H110.952V8.75H85.7354V9.25Z" fill="#E4DAC9"/>
</svg>
