<svg width="28" height="28" viewBox="0 0 28 28" fill="none" xmlns="http://www.w3.org/2000/svg">
<path d="M24.8888 22.5556H3.11103C2.90475 22.5556 2.70692 22.4736 2.56106 22.3278C2.4152 22.1819 2.33325 21.9841 2.33325 21.7778C2.33325 21.5715 2.4152 21.3737 2.56106 21.2278C2.70692 21.0819 2.90475 21 3.11103 21H24.8888C25.0951 21 25.2929 21.0819 25.4388 21.2278C25.5846 21.3737 25.6666 21.5715 25.6666 21.7778C25.6666 21.9841 25.5846 22.1819 25.4388 22.3278C25.2929 22.4736 25.0951 22.5556 24.8888 22.5556Z" fill="#E4DAC9"/>
<path d="M24.8888 14.7777H3.11103C2.90475 14.7777 2.70692 14.6958 2.56106 14.5499C2.4152 14.4041 2.33325 14.2062 2.33325 13.9999C2.33325 13.7937 2.4152 13.5958 2.56106 13.45C2.70692 13.3041 2.90475 13.2222 3.11103 13.2222H24.8888C25.0951 13.2222 25.2929 13.3041 25.4388 13.45C25.5846 13.5958 25.6666 13.7937 25.6666 13.9999C25.6666 14.2062 25.5846 14.4041 25.4388 14.5499C25.2929 14.6958 25.0951 14.7777 24.8888 14.7777Z" fill="#E4DAC9"/>
<path d="M24.8888 7.00001H3.11103C2.90475 7.00001 2.70692 6.91807 2.56106 6.77221C2.4152 6.62635 2.33325 6.42852 2.33325 6.22224C2.33325 6.01596 2.4152 5.81813 2.56106 5.67226C2.70692 5.5264 2.90475 5.44446 3.11103 5.44446H24.8888C25.0951 5.44446 25.2929 5.5264 25.4388 5.67226C25.5846 5.81813 25.6666 6.01596 25.6666 6.22224C25.6666 6.42852 25.5846 6.62635 25.4388 6.77221C25.2929 6.91807 25.0951 7.00001 24.8888 7.00001Z" fill="#E4DAC9"/>
</svg>
