<svg width="192" height="383" viewBox="0 0 192 383" fill="none" xmlns="http://www.w3.org/2000/svg">
<mask id="path-1-inside-1_43_3520" fill="white">
<path d="M191.5 2.21468e-05C166.352 2.32461e-05 141.45 4.95333 118.216 14.5771C94.9823 24.2009 73.8715 38.3067 56.089 56.0891C38.3066 73.8715 24.2008 94.9823 14.5771 118.216C4.95328 141.45 -1.05693e-05 166.352 -8.37073e-06 191.5C-6.17221e-06 216.648 4.95329 241.55 14.5771 264.784C24.2008 288.018 38.3066 309.129 56.0891 326.911C73.8715 344.693 94.9823 358.799 118.216 368.423C141.45 378.047 166.352 383 191.5 383L191.5 191.5L191.5 2.21468e-05Z"/>
</mask>
<path d="M191.5 2.21468e-05C166.352 2.32461e-05 141.45 4.95333 118.216 14.5771C94.9823 24.2009 73.8715 38.3067 56.089 56.0891C38.3066 73.8715 24.2008 94.9823 14.5771 118.216C4.95328 141.45 -1.05693e-05 166.352 -8.37073e-06 191.5C-6.17221e-06 216.648 4.95329 241.55 14.5771 264.784C24.2008 288.018 38.3066 309.129 56.0891 326.911C73.8715 344.693 94.9823 358.799 118.216 368.423C141.45 378.047 166.352 383 191.5 383L191.5 191.5L191.5 2.21468e-05Z" stroke="url(#paint0_linear_43_3520)" stroke-width="2" mask="url(#path-1-inside-1_43_3520)"/>
<defs>
<linearGradient id="paint0_linear_43_3520" x1="191.5" y1="383" x2="191.5" y2="2.21468e-05" gradientUnits="userSpaceOnUse">
<stop stop-color="#E4DAC9"/>
<stop offset="1" stop-color="#D8BA9E"/>
</linearGradient>
</defs>
</svg>
