<svg width="21" height="19" viewBox="0 0 21 19" fill="none" xmlns="http://www.w3.org/2000/svg">
<path d="M10.5553 5.36303C9.60975 5.36303 8.68543 5.61668 7.89923 6.0919C7.11303 6.56711 6.50027 7.24255 6.13842 8.03281C5.77657 8.82307 5.6819 9.69264 5.86636 10.5316C6.05083 11.3705 6.50616 12.1411 7.17477 12.7459C7.84337 13.3508 8.69523 13.7627 9.62261 13.9296C10.55 14.0964 11.5113 14.0108 12.3848 13.6834C13.2584 13.3561 14.0051 12.8018 14.5304 12.0906C15.0557 11.3794 15.3361 10.5432 15.3361 9.68784C15.3347 8.54123 14.8305 7.44195 13.9343 6.63117C13.038 5.82039 11.8228 5.36433 10.5553 5.36303ZM10.5553 12.8844C9.85642 12.8844 9.17322 12.697 8.59212 12.3457C8.01102 11.9945 7.5581 11.4952 7.29065 10.9111C7.0232 10.327 6.95322 9.6843 7.08956 9.06422C7.22591 8.44414 7.56246 7.87456 8.05664 7.42751C8.55083 6.98045 9.18047 6.67601 9.86592 6.55267C10.5514 6.42933 11.2619 6.49263 11.9076 6.73457C12.5533 6.97651 13.1051 7.38623 13.4934 7.91191C13.8817 8.43759 14.0889 9.05562 14.0889 9.68784C14.0879 10.5353 13.7152 11.3478 13.0528 11.9471C12.3903 12.5464 11.4922 12.8835 10.5553 12.8844ZM15.1282 0.474121H5.98236C4.49443 0.475664 3.06792 1.01105 2.01579 1.96283C0.963659 2.91461 0.371823 4.20505 0.370117 5.55107V13.8246C0.371823 15.1706 0.963659 16.4611 2.01579 17.4129C3.06792 18.3646 4.49443 18.9 5.98236 18.9016H15.1282C16.6162 18.9 18.0427 18.3646 19.0948 17.4129C20.1469 16.4611 20.7388 15.1706 20.7405 13.8246V5.55107C20.7388 4.20505 20.1469 2.91461 19.0948 1.96283C18.0427 1.01105 16.6162 0.475664 15.1282 0.474121ZM19.4933 13.8246C19.492 14.8715 19.0317 15.8752 18.2134 16.6155C17.3951 17.3558 16.2855 17.7722 15.1282 17.7734H5.98236C4.82507 17.7722 3.71554 17.3558 2.89721 16.6155C2.07888 15.8752 1.61858 14.8715 1.61728 13.8246V5.55107C1.61858 4.50416 2.07888 3.50046 2.89721 2.76018C3.71554 2.0199 4.82507 1.6035 5.98236 1.60233H15.1282C16.2855 1.6035 17.3951 2.0199 18.2134 2.76018C19.0317 3.50046 19.492 4.50416 19.4933 5.55107V13.8246ZM16.999 4.79893C16.999 4.98488 16.938 5.16665 16.8238 5.32126C16.7096 5.47587 16.5473 5.59638 16.3574 5.66754C16.1675 5.7387 15.9585 5.75732 15.7569 5.72104C15.5553 5.68476 15.3701 5.59522 15.2248 5.46373C15.0794 5.33225 14.9805 5.16472 14.9404 4.98235C14.9003 4.79997 14.9208 4.61093 14.9995 4.43914C15.0782 4.26734 15.2114 4.12051 15.3823 4.0172C15.5532 3.91389 15.7541 3.85875 15.9597 3.85875C16.2352 3.85905 16.4994 3.9582 16.6942 4.13445C16.8891 4.31071 16.9987 4.54967 16.999 4.79893Z" fill="#E4DAC9"/>
</svg>
