<svg width="87" height="17" viewBox="0 0 87 17" fill="none" xmlns="http://www.w3.org/2000/svg">
<path d="M8.358 14L4.592 9.114L5.432 8.61L9.548 14H8.358ZM1.652 14V4.2H2.66V14H1.652ZM2.352 9.506V8.596H5.418V9.506H2.352ZM5.516 9.212L4.564 9.044L8.218 4.2H9.338L5.516 9.212ZM15.5893 14V12.376L15.5473 12.11V9.394C15.5473 8.76867 15.37 8.288 15.0153 7.952C14.67 7.616 14.152 7.448 13.4613 7.448C12.9853 7.448 12.5327 7.52733 12.1033 7.686C11.674 7.84467 11.31 8.05467 11.0113 8.316L10.5633 7.574C10.9367 7.25667 11.3847 7.014 11.9073 6.846C12.43 6.66867 12.9807 6.58 13.5593 6.58C14.5113 6.58 15.244 6.818 15.7573 7.294C16.28 7.76067 16.5413 8.47467 16.5413 9.436V14H15.5893ZM13.0553 14.07C12.5047 14.07 12.024 13.9813 11.6133 13.804C11.212 13.6173 10.904 13.3653 10.6893 13.048C10.4747 12.7213 10.3673 12.348 10.3673 11.928C10.3673 11.5453 10.456 11.2 10.6333 10.892C10.82 10.5747 11.1187 10.3227 11.5293 10.136C11.9493 9.94 12.5093 9.842 13.2093 9.842H15.7433V10.584H13.2373C12.528 10.584 12.0333 10.71 11.7533 10.962C11.4827 11.214 11.3473 11.5267 11.3473 11.9C11.3473 12.32 11.5107 12.656 11.8373 12.908C12.164 13.16 12.6213 13.286 13.2093 13.286C13.7693 13.286 14.25 13.16 14.6513 12.908C15.062 12.6467 15.3607 12.2733 15.5473 11.788L15.7713 12.474C15.5847 12.9593 15.258 13.3467 14.7913 13.636C14.334 13.9253 13.7553 14.07 13.0553 14.07ZM20.5874 14V7.252L20.8394 7.518H17.8014V6.65H24.3674V7.518H21.3294L21.5814 7.252V14H20.5874ZM30.3686 14V12.376L30.3266 12.11V9.394C30.3266 8.76867 30.1493 8.288 29.7946 7.952C29.4493 7.616 28.9313 7.448 28.2406 7.448C27.7646 7.448 27.312 7.52733 26.8826 7.686C26.4533 7.84467 26.0893 8.05467 25.7906 8.316L25.3426 7.574C25.716 7.25667 26.164 7.014 26.6866 6.846C27.2093 6.66867 27.76 6.58 28.3386 6.58C29.2906 6.58 30.0233 6.818 30.5366 7.294C31.0593 7.76067 31.3206 8.47467 31.3206 9.436V14H30.3686ZM27.8346 14.07C27.284 14.07 26.8033 13.9813 26.3926 13.804C25.9913 13.6173 25.6833 13.3653 25.4686 13.048C25.254 12.7213 25.1466 12.348 25.1466 11.928C25.1466 11.5453 25.2353 11.2 25.4126 10.892C25.5993 10.5747 25.898 10.3227 26.3086 10.136C26.7286 9.94 27.2886 9.842 27.9886 9.842H30.5226V10.584H28.0166C27.3073 10.584 26.8126 10.71 26.5326 10.962C26.262 11.214 26.1266 11.5267 26.1266 11.9C26.1266 12.32 26.29 12.656 26.6166 12.908C26.9433 13.16 27.4006 13.286 27.9886 13.286C28.5486 13.286 29.0293 13.16 29.4306 12.908C29.8413 12.6467 30.14 12.2733 30.3266 11.788L30.5506 12.474C30.364 12.9593 30.0373 13.3467 29.5706 13.636C29.1133 13.9253 28.5346 14.07 27.8346 14.07ZM32.6227 13.986L32.6927 13.132C32.7581 13.1413 32.8187 13.1553 32.8747 13.174C32.9401 13.1833 32.9961 13.188 33.0427 13.188C33.3414 13.188 33.5794 13.076 33.7567 12.852C33.9434 12.628 34.0834 12.3293 34.1767 11.956C34.2701 11.5827 34.3354 11.1627 34.3727 10.696C34.4101 10.22 34.4427 9.744 34.4707 9.268L34.5967 6.65H39.9867V14H38.9927V7.224L39.2447 7.518H35.2407L35.4787 7.21L35.3667 9.338C35.3387 9.97267 35.2874 10.5793 35.2127 11.158C35.1474 11.7367 35.0401 12.2453 34.8907 12.684C34.7507 13.1227 34.5547 13.468 34.3027 13.72C34.0507 13.9627 33.7287 14.084 33.3367 14.084C33.2247 14.084 33.1081 14.0747 32.9867 14.056C32.8747 14.0373 32.7534 14.014 32.6227 13.986ZM45.8364 14.07C45.1271 14.07 44.4878 13.9113 43.9184 13.594C43.3584 13.2673 42.9151 12.824 42.5884 12.264C42.2618 11.6947 42.0984 11.046 42.0984 10.318C42.0984 9.58067 42.2618 8.932 42.5884 8.372C42.9151 7.812 43.3584 7.37333 43.9184 7.056C44.4784 6.73867 45.1178 6.58 45.8364 6.58C46.5644 6.58 47.2084 6.73867 47.7684 7.056C48.3378 7.37333 48.7811 7.812 49.0984 8.372C49.4251 8.932 49.5884 9.58067 49.5884 10.318C49.5884 11.046 49.4251 11.6947 49.0984 12.264C48.7811 12.824 48.3378 13.2673 47.7684 13.594C47.1991 13.9113 46.5551 14.07 45.8364 14.07ZM45.8364 13.188C46.3684 13.188 46.8398 13.0713 47.2504 12.838C47.6611 12.5953 47.9831 12.2593 48.2164 11.83C48.4591 11.3913 48.5804 10.8873 48.5804 10.318C48.5804 9.73933 48.4591 9.23533 48.2164 8.806C47.9831 8.37667 47.6611 8.04533 47.2504 7.812C46.8398 7.56933 46.3731 7.448 45.8504 7.448C45.3278 7.448 44.8611 7.56933 44.4504 7.812C44.0398 8.04533 43.7131 8.37667 43.4704 8.806C43.2278 9.23533 43.1064 9.73933 43.1064 10.318C43.1064 10.8873 43.2278 11.3913 43.4704 11.83C43.7131 12.2593 44.0398 12.5953 44.4504 12.838C44.8611 13.0713 45.3231 13.188 45.8364 13.188ZM51.7128 14V6.65H56.9208V7.518H52.4548L52.7068 7.266V14H51.7128Z" fill="#E4DAC9"/>
<path d="M86.1768 9.17678C86.2744 9.07915 86.2744 8.92085 86.1768 8.82322L84.5858 7.23223C84.4882 7.1346 84.3299 7.1346 84.2322 7.23223C84.1346 7.32986 84.1346 7.48816 84.2322 7.58579L85.6464 9L84.2322 10.4142C84.1346 10.5118 84.1346 10.6701 84.2322 10.7678C84.3299 10.8654 84.4882 10.8654 84.5858 10.7678L86.1768 9.17678ZM66 9.25H86V8.75H66V9.25Z" fill="#E4DAC9"/>
</svg>
