<svg width="106" height="34" viewBox="0 0 106 34" fill="none" xmlns="http://www.w3.org/2000/svg">
<path fill-rule="evenodd" clip-rule="evenodd" d="M64.1564 2.53046C63.9367 2.74723 63.9298 2.80815 63.9434 4.39353L63.9563 5.89955L64.2126 5.63467L64.469 5.3698L64.4566 3.92504C64.4444 2.493 64.4434 2.48014 64.3406 2.46569C64.2835 2.45765 64.2007 2.48678 64.1564 2.53046ZM2.68416 4.76613C2.68416 5.01694 2.70285 5.0744 2.83121 5.21868C2.91207 5.30955 3.07127 5.42061 3.18503 5.46549C3.50234 5.5907 4.02449 5.9518 4.24381 6.19765L4.44107 6.41879V5.44883V4.47887H3.56262H2.68416V4.76613ZM70.7234 4.80933C70.7399 5.09838 70.7617 5.16161 70.8976 5.31432C70.9831 5.41035 71.0765 5.57505 71.1052 5.68028C71.1835 5.96745 71.1487 18.746 71.069 18.9746C71.0366 19.0673 70.9219 19.2484 70.814 19.3772C70.6269 19.6003 70.6179 19.6265 70.6179 19.943V20.2749H71.6183H72.6188V12.3769V4.47887H71.6616H70.7044L70.7234 4.80933ZM41.2385 5.16387V5.81406L41.4947 5.84387C42.2555 5.93244 43.2212 6.31424 44.1057 6.87625L44.2155 6.94603V6.12117V5.29636L43.9349 5.17249C43.2931 4.88927 42.2634 4.61713 41.5679 4.54696L41.2385 4.51373V5.16387ZM60.5645 5.24242V5.81334L60.9142 5.94077C61.1065 6.01084 61.2676 6.06276 61.2721 6.05611C61.2766 6.04946 61.4045 5.8104 61.5562 5.52487L61.832 5.00572L61.6993 4.95593C61.5486 4.89939 60.6742 4.6715 60.6079 4.6715C60.584 4.6715 60.5645 4.92843 60.5645 5.24242ZM79.988 5.41141V6.10316L80.2198 6.18903C80.9562 6.4617 81.6988 6.94377 82.3333 7.56102C82.5919 7.81265 82.8721 8.10521 82.9558 8.21116L83.1081 8.40379L83.1098 7.30958L83.1114 6.21537L82.7332 5.94886C82.2427 5.60323 81.1175 5.05547 80.5121 4.86755C80.25 4.78621 80.0249 4.71966 80.0118 4.71966C79.9988 4.71966 79.988 5.03096 79.988 5.41141ZM62.5013 5.93566C62.4012 6.20713 62.3197 6.44398 62.3203 6.46199C62.3227 6.53765 62.4835 6.646 62.5932 6.646H62.7118V6.04402C62.7118 5.71293 62.7054 5.44204 62.6975 5.44204C62.6897 5.44204 62.6014 5.66415 62.5013 5.93566ZM12.112 7.59714L10.7887 9.51144L10.7871 10.6392C10.7862 11.2594 10.7957 11.7567 10.8083 11.7443C10.8209 11.7318 11.4243 10.8668 12.1493 9.82192L13.4672 7.92221L13.4684 6.80252C13.4691 6.18672 13.4619 5.68283 13.4525 5.68283C13.443 5.68283 12.8398 6.54425 12.112 7.59714ZM52.3675 7.34638C51.5474 8.29934 50.9251 9.53832 50.6876 10.6913C50.3923 12.1249 50.4736 13.5444 50.9261 14.8594C51.2264 15.7319 51.8326 16.7885 52.4122 17.4495L52.6584 17.7303V16.2651C52.6584 14.9177 52.6504 14.777 52.5592 14.5155C52.3328 13.866 52.2505 13.312 52.2487 12.425C52.2468 11.5088 52.3155 11.0052 52.5361 10.3159C52.6586 9.93351 52.6597 9.91472 52.6469 8.48316L52.634 7.03676L52.3675 7.34638ZM63.6996 7.48695L63.5461 7.70183L63.7145 7.90087L63.8831 8.09986V7.68599C63.8831 7.45834 63.8763 7.27207 63.8681 7.27207C63.8598 7.27207 63.784 7.36877 63.6996 7.48695ZM34.0102 7.5851C33.2353 8.57977 32.7507 9.63844 32.4902 10.9053C32.3335 11.6675 32.3357 13.178 32.4945 13.9059C32.7633 15.138 33.3581 16.3932 34.1065 17.3077L34.2597 17.4949V15.7337C34.2597 14.2681 34.2461 13.9133 34.1789 13.6201C34.0619 13.1103 34.0602 11.7815 34.1757 11.1729C34.2506 10.7783 34.2607 10.4804 34.2489 9.00578L34.2353 7.29619L34.0102 7.5851ZM24.9906 9.64268L24.9871 11.7002L25.6895 13.2305L26.3919 14.7607L25.6895 14.7741L24.9871 14.7874V15.3399V15.8925H25.9519H26.9166L27.488 17.1325L28.0594 18.3726L28.0605 16.3213L28.0617 14.2699L26.6161 11.1201C25.821 9.38777 25.1307 7.88368 25.0822 7.77773C24.9954 7.58818 24.9939 7.61794 24.9906 9.64268ZM97.1688 9.62577L97.1667 11.6664L97.8548 13.1654C98.2333 13.9899 98.5541 14.6915 98.5677 14.7246C98.5868 14.7711 98.4305 14.7848 97.8795 14.7848H97.1667V15.3386V15.8925H98.137H99.1074L99.6621 17.098L100.217 18.3034L100.23 16.2714L100.242 14.2393L98.7955 11.0807C97.9998 9.34356 97.3087 7.84636 97.2598 7.75365C97.1726 7.58813 97.171 7.62175 97.1688 9.62577ZM43.7796 12.0833C43.6585 12.2511 43.6466 12.5512 43.7551 12.7039C43.7971 12.7632 43.9179 12.8551 44.0235 12.9083L44.2155 13.0049V12.4742V11.9435H44.048C43.9188 11.9435 43.8574 11.9754 43.7796 12.0833ZM17.1818 17.2157C16.3951 18.9451 16.3849 18.9633 16.0065 19.3182L15.6657 19.6378V19.9563V20.2749H16.5601C17.4332 20.2749 17.457 20.2722 17.5611 20.1628C17.6676 20.051 17.6678 20.0473 17.655 18.127L17.6423 16.2033L17.1818 17.2157ZM89.2133 17.5545C88.5736 18.9562 88.4352 19.1936 88.159 19.3621C87.9346 19.4989 87.8453 19.6827 87.8453 20.0076V20.2749H88.7397C89.6128 20.2749 89.6365 20.2722 89.7407 20.1628C89.8471 20.051 89.8473 20.0472 89.8346 18.1358L89.8218 16.2209L89.2133 17.5545ZM83.0626 16.3606C83.0014 16.5079 82.4156 17.1348 82.0622 17.4312C81.5481 17.8623 81.0439 18.1818 80.4625 18.445L79.988 18.6598V19.3228C79.988 19.8357 80.0024 19.9859 80.0517 19.9859C80.1862 19.9859 81.1304 19.6457 81.5833 19.434C82.0413 19.2198 82.9355 18.6682 83.0551 18.526C83.0973 18.4759 83.1097 18.1597 83.1001 17.3793C83.0929 16.7867 83.076 16.3282 83.0626 16.3606ZM63.2974 17.2857C62.5585 18.0197 61.8561 18.4785 60.9305 18.8319L60.5889 18.9623L60.5751 19.5223C60.5675 19.8303 60.5785 20.0822 60.5995 20.0821C60.6205 20.0821 60.8399 20.0286 61.0871 19.9632C61.9558 19.7335 62.8306 19.348 63.5664 18.8707L63.8831 18.6652V17.6882C63.8831 17.1508 63.8776 16.715 63.8709 16.7197C63.8641 16.7244 63.6061 16.9791 63.2974 17.2857ZM43.9487 17.9895C43.3518 18.3969 42.4142 18.7652 41.6506 18.8924L41.2629 18.9569L41.2492 19.5989L41.2356 20.2409L41.5847 20.2088C42.2631 20.1466 43.2442 19.8858 43.9349 19.5841L44.2155 19.4615V18.6402C44.2155 18.1884 44.21 17.82 44.2033 17.8215C44.1965 17.8229 44.082 17.8986 43.9487 17.9895ZM26.3292 25.4678C26.0461 25.5456 26.0359 25.554 26.0217 25.721C26.0122 25.8326 26.0337 25.9155 26.0827 25.9556C26.1492 26.01 26.1584 26.2985 26.1584 28.3168C26.1584 30.5431 26.1553 30.6199 26.0608 30.7385C26.0071 30.8058 25.9632 30.9279 25.9632 31.0098V31.1588H26.3048H26.6464V28.2692C26.6464 26.68 26.6409 25.3814 26.6342 25.3836C26.6275 25.3857 26.4902 25.4236 26.3292 25.4678ZM76.4742 26.5428C76.3803 26.5685 76.2211 26.6107 76.1204 26.6367C75.955 26.6792 75.9374 26.6992 75.9374 26.8445C75.9374 26.933 75.9703 27.0323 76.0106 27.0653C76.0733 27.1166 76.0838 27.3833 76.0838 28.9194C76.0838 30.4554 76.0733 30.7221 76.0106 30.7735C75.9703 30.8065 75.9374 30.9066 75.9374 30.9961V31.1588H76.3766H76.8158V28.8231C76.8158 26.2144 76.8497 26.44 76.4742 26.5428ZM34.8941 26.7981C34.8941 27.0607 34.8941 27.0608 35.1015 27.1517C35.3566 27.2635 35.6102 27.4707 35.7304 27.6652L35.821 27.8117L35.8212 27.3234L35.8214 26.8351L35.6139 26.7389C35.4011 26.6404 35.0636 26.5362 34.9551 26.5358C34.9137 26.5356 34.8941 26.62 34.8941 26.7981ZM43.6786 26.6944C43.6786 26.7819 43.7061 26.8804 43.7396 26.9135C43.7844 26.9575 43.8071 27.3414 43.825 28.3558L43.8494 29.7381L43.99 30.0383C44.2669 30.6299 44.2643 30.6446 44.2643 28.4918V26.5355H43.9715H43.6786V26.6944ZM46.9972 26.6693C46.9972 26.7428 47.0314 26.8512 47.0733 26.9101C47.1386 27.0022 47.1472 27.2052 47.1343 28.3536L47.1192 29.6899L46.9728 29.9508C46.8857 30.1061 46.7326 30.2808 46.5946 30.3825C46.3647 30.5519 46.3628 30.5556 46.3628 30.8319C46.3628 30.9852 46.382 31.1106 46.4055 31.1106C46.5008 31.1106 46.8662 30.9618 46.9976 30.8696L47.1379 30.771L47.1567 30.9769C47.167 31.0902 47.1792 30.1372 47.1839 28.8592C47.1924 26.5648 47.1912 26.5355 47.0948 26.5355C47.0207 26.5355 46.9972 26.5676 46.9972 26.6693ZM51.3895 26.6897C51.3895 26.7981 51.4361 26.8914 51.5459 27.0032C51.632 27.0908 51.7728 27.3086 51.8589 27.4871L52.0155 27.8117L52.0197 27.1736L52.0239 26.5355H51.7067H51.3895V26.6897ZM62.3702 26.8004V27.0653H62.5425C62.6374 27.0653 62.7911 27.0967 62.8842 27.135L63.0534 27.2048V26.8999C63.0534 26.5537 63.0332 26.5374 62.602 26.5362L62.3702 26.5355V26.8004ZM80.0856 26.5758C79.9719 26.6093 79.9627 26.6356 79.9492 26.9623L79.9348 27.3127L80.1585 27.1833C80.3507 27.0722 80.4232 27.0569 80.6733 27.0748C80.8724 27.089 81.0105 27.1292 81.1106 27.2022L81.2569 27.3089V26.9732C81.2569 26.7568 81.2352 26.6242 81.1959 26.6C81.114 26.5496 80.2392 26.5306 80.0856 26.5758ZM29.0868 26.8606L29.0869 27.1375L29.2942 27.2216C29.5123 27.3102 29.8224 27.5689 30.0017 27.8117L30.1083 27.9562L30.1099 27.4665L30.1114 26.9768L29.9455 26.8756C29.7727 26.7702 29.2658 26.5837 29.1521 26.5837C29.1048 26.5837 29.0866 26.6608 29.0868 26.8606ZM40.6529 26.8858C40.6529 27.182 40.6562 27.1896 40.8247 27.2791C41.0698 27.4094 41.4187 27.7947 41.5583 28.0893L41.6779 28.3415L41.6682 27.5228C41.6629 27.0725 41.6505 26.7745 41.6406 26.8606C41.6195 27.0452 41.6132 27.0469 41.4287 26.9173C41.3055 26.8307 40.7498 26.5837 40.6782 26.5837C40.6643 26.5837 40.6529 26.7196 40.6529 26.8858ZM60.3814 26.6376C60.2388 26.6782 60.2228 26.701 60.2228 26.8633C60.2228 26.9843 60.255 27.0711 60.3204 27.1263C60.4146 27.2059 60.418 27.2684 60.418 28.9097C60.418 30.3307 60.4062 30.626 60.3464 30.7041C60.307 30.7555 60.274 30.8789 60.2732 30.9782L60.2716 31.1588H60.4913H60.7109V28.8712C60.7109 26.3229 60.7421 26.5348 60.3814 26.6376ZM67.1041 26.8662C67.1041 27.1481 67.11 27.1621 67.2627 27.2392C67.5285 27.3734 67.7717 27.5855 67.9297 27.8209L68.0801 28.045V27.5096V26.9742L67.7263 26.8045C67.5317 26.7112 67.3121 26.621 67.2383 26.604L67.1041 26.5732V26.8662ZM73.0092 26.8628V27.1524L73.2684 27.2967C73.5142 27.4336 73.7126 27.6192 73.8973 27.8851C73.9776 28.0007 73.9802 27.9889 73.9827 27.4893L73.9853 26.9742L73.6314 26.8045C73.4369 26.7112 73.2173 26.621 73.1434 26.604L73.0092 26.5732V26.8628ZM54.7189 28.1354L54.266 29.1142L54.2797 29.8066L54.2933 30.4991L54.7465 29.5166L55.1997 28.5341L55.1857 27.8454L55.1717 27.1567L54.7189 28.1354ZM38.0308 27.4689C37.686 27.9422 37.6052 28.204 37.6052 28.8471C37.6052 29.4902 37.686 29.752 38.0308 30.2254L38.2371 30.5086L38.2505 29.6779C38.2578 29.221 38.2578 28.4733 38.2505 28.0164L38.2371 27.1857L38.0308 27.4689ZM49.047 27.5709V27.884H49.1934H49.3398V27.5709V27.2579H49.1934H49.047V27.5709ZM50.2182 27.5709V27.884H50.4134H50.6087V27.5709V27.2579H50.4134H50.2182V27.5709ZM64.6002 27.4183C63.9703 28.2338 63.951 29.4222 64.5548 30.2197L64.7371 30.4605L64.7505 29.6538C64.7579 29.2102 64.7579 28.4858 64.7505 28.0441L64.7371 27.2411L64.6002 27.4183ZM70.478 27.476C70.3877 27.5944 70.2559 27.8267 70.1852 27.9922C70.0704 28.261 70.0566 28.3552 70.0566 28.8712C70.0566 29.4386 70.0599 29.4557 70.2352 29.8103C70.3334 30.009 70.4699 30.2365 70.5385 30.316L70.6632 30.4605L70.6649 28.8592C70.6659 27.9785 70.6612 27.2586 70.6545 27.2594C70.6477 27.2602 70.5683 27.3577 70.478 27.476ZM32.4879 27.5598C32.2037 27.9824 32.1017 28.3147 32.1 28.8231C32.0983 29.3353 32.2163 29.7305 32.4943 30.144L32.6736 30.4107L32.687 29.6289C32.6944 29.1989 32.6944 28.4953 32.687 28.0654L32.6736 27.2836L32.4879 27.5598ZM34.8941 28.3896V28.7027H35.3577H35.8214V28.3896V28.0766H35.3577H34.8941V28.3896ZM41.5621 29.597C41.4523 29.8594 41.0696 30.285 40.8279 30.4134C40.656 30.5048 40.6529 30.5118 40.6529 30.8052V31.1038L40.8107 31.0592C41.0097 31.0029 41.4232 30.8005 41.5695 30.688C41.6764 30.6056 41.6803 30.5781 41.6671 29.9905L41.6533 29.3788L41.5621 29.597ZM67.9631 29.8489C67.8702 30.0262 67.4913 30.3683 67.2753 30.4699C67.108 30.5487 67.1041 30.5571 67.1041 30.8358V31.121L67.2383 31.0902C67.3121 31.0733 67.5317 30.9831 67.7263 30.8897L68.0801 30.7201V30.217C68.0801 29.9403 68.0697 29.714 68.057 29.714C68.0442 29.714 68.002 29.7747 67.9631 29.8489ZM73.9467 29.7474C73.9256 29.8662 73.3974 30.3746 73.2071 30.4592L73.0092 30.5473V30.8328V31.1182L73.1678 31.0855C73.3752 31.0427 73.9406 30.7708 73.9678 30.7008C73.9795 30.6708 73.9818 30.4311 73.973 30.1681C73.9641 29.9051 73.9523 29.7158 73.9467 29.7474ZM29.9809 29.9251C29.8474 30.1285 29.5004 30.4115 29.2658 30.5082C29.0879 30.5816 29.0866 30.5843 29.0866 30.8679V31.1536L29.3428 31.079C29.4837 31.0379 29.7143 30.9489 29.8552 30.8811L30.1114 30.7578V30.26C30.1114 29.9862 30.106 29.7624 30.0992 29.7627C30.0925 29.7631 30.0392 29.8361 29.9809 29.9251ZM35.651 30.1949C35.5708 30.2776 35.3676 30.4122 35.1996 30.4938L34.8941 30.6423V30.9043V31.1664L35.0527 31.1333C35.2767 31.0866 35.7345 30.9266 35.784 30.8777C35.8069 30.8552 35.8191 30.6584 35.8113 30.4405L35.797 30.0443L35.651 30.1949ZM50.4839 30.5357C50.4324 30.5919 50.355 30.6252 50.3055 30.6124C50.2289 30.5926 50.2182 30.6247 50.2182 30.8743V31.1588H50.4134H50.6087V30.7976C50.6087 30.5989 50.6011 30.4364 50.5918 30.4364C50.5825 30.4364 50.534 30.4811 50.4839 30.5357Z" fill="#E4DAC9"/>
<path fill-rule="evenodd" clip-rule="evenodd" d="M64.4687 3.89011C64.4687 4.66416 64.4811 5.29745 64.4963 5.29745C64.5666 5.29745 64.8621 4.55157 64.9135 4.24441C65.0036 3.7061 64.8509 3.02128 64.5445 2.58959C64.4752 2.49202 64.4687 2.60423 64.4687 3.89011ZM63.4562 3.79249C62.7101 5.3105 62.7118 5.30554 62.7118 6.00081C62.7118 6.32911 62.7234 6.59773 62.7376 6.59773C62.8008 6.59773 63.3965 6.27825 63.6512 6.10777L63.9319 5.9199V4.40473C63.9319 3.57135 63.9247 2.88952 63.9159 2.88952C63.9071 2.88952 63.7002 3.29588 63.4562 3.79249ZM23.1849 4.09806C23.1324 4.21475 21.8694 6.97424 20.3781 10.2303L17.6667 16.1503L17.6671 17.6949L17.6675 19.2394L18.3909 17.6742C18.7886 16.8134 19.1406 16.0603 19.173 16.0007L19.2318 15.8924H22.1094H24.9871V15.339V14.7855L22.3619 14.7731L19.7367 14.7606L21.3794 11.1591C22.2828 9.17827 23.0321 7.54766 23.0444 7.53553C23.0567 7.52339 23.4933 8.44423 24.0148 9.58179L24.9627 11.6501L24.9754 9.61054L24.9881 7.57092L24.1529 5.74793C23.6935 4.74526 23.3092 3.91616 23.2989 3.90543C23.2886 3.89473 23.2373 3.98142 23.1849 4.09806ZM92.6602 10.0355L89.8462 16.174L89.8469 17.7308L89.8475 19.2875L90.0875 18.7578C90.2195 18.4664 90.5683 17.7079 90.8625 17.0722L91.3976 15.9164L94.2821 15.904L97.1667 15.8916V15.3381V14.7847H94.5505C92.0791 14.7847 91.9361 14.78 91.9665 14.7004C92.1426 14.2397 95.2435 7.52296 95.2679 7.54954C95.2857 7.56905 95.7148 8.49215 96.2213 9.60086L97.1423 11.6168L97.1554 9.57678L97.1687 7.53683L96.3544 5.75496C95.9066 4.77493 95.5254 3.95594 95.5072 3.93504C95.489 3.91409 94.2079 6.65933 92.6602 10.0355ZM4.44155 5.45397L4.44199 6.42918L6.54008 9.45089L8.63812 12.4726V15.4967C8.63812 18.0241 8.62616 18.5662 8.56521 18.7971C8.46502 19.1766 8.36746 19.3116 8.19328 19.3116C8.0538 19.3116 8.05248 19.3143 8.05248 19.5996C8.05248 19.758 8.08782 19.9747 8.13101 20.0812L8.20948 20.2748H9.49749H10.7854V19.8943C10.7854 19.5413 10.7735 19.4964 10.619 19.2699C10.5275 19.1357 10.4287 18.9157 10.3994 18.7811C10.3642 18.619 10.3462 17.5037 10.3462 15.4791V12.4219L10.5658 12.0988L10.7854 11.7758V10.6469V9.51803L10.2648 10.2747C9.97844 10.6909 9.72838 11.0145 9.7091 10.9938C9.61906 10.8971 6.00637 5.63832 5.92814 5.49009C5.87387 5.38717 5.83781 5.21211 5.83551 5.04057C5.83215 4.78634 5.81663 4.74632 5.67246 4.61918C5.51698 4.48212 5.50038 4.47875 4.97712 4.47875H4.44107L4.44155 5.45397ZM13.8674 4.59144C13.7426 4.72253 13.6531 4.99237 13.6931 5.11676C13.7086 5.16506 13.6655 5.30087 13.5952 5.42493C13.4702 5.64569 13.4696 5.65185 13.4696 6.78218V7.91767L14.0286 7.10118C14.3361 6.65211 14.6818 6.17794 14.7968 6.04743C15.0104 5.80509 15.5317 5.44323 15.6684 5.44241C15.7101 5.44212 15.8188 5.36593 15.9101 5.27303C16.0572 5.12326 16.0783 5.06875 16.0962 4.79145L16.1163 4.47875H15.0455C13.9859 4.47875 13.9736 4.47996 13.8674 4.59144ZM39.5792 4.53211C37.6744 4.74488 35.7647 5.67333 34.534 6.98498L34.2597 7.27744L34.2615 8.99637L34.2634 10.7153L34.4009 10.2999C35.1502 8.03493 37.1975 6.24988 39.5004 5.85359C39.7459 5.81135 40.2162 5.77904 40.586 5.77904H41.2385V5.15813C41.2385 4.63638 41.2261 4.53255 41.1613 4.50799C41.0534 4.46715 40.0198 4.4829 39.5792 4.53211ZM58.068 4.52961C56.2286 4.67726 54.4838 5.40947 53.0854 6.62047L52.6584 6.99023V8.44134V9.89246L52.9465 9.31663C53.9211 7.36866 55.5834 6.09231 57.7084 5.66018C58.5442 5.49028 59.4731 5.51566 60.2558 5.72977L60.5645 5.81424V5.24799C60.5645 4.80065 60.5498 4.67611 60.4945 4.65521C60.2012 4.54415 58.7942 4.47134 58.068 4.52961ZM72.6188 12.3768V20.2748L75.4372 20.2744C78.215 20.274 78.7063 20.2533 79.561 20.1004L79.988 20.024V19.3354V18.6467L79.683 18.7366C78.9349 18.9567 78.6527 18.9745 75.9034 18.9745C74.2019 18.9745 73.2628 18.9572 73.2014 18.9248C73.1495 18.8974 73.0631 18.7899 73.0093 18.6858C72.913 18.4995 72.9116 18.4052 72.9116 12.145V5.79329L73.3142 5.76237C73.9969 5.70993 78.1219 5.72683 78.5971 5.784C78.8387 5.81304 79.2398 5.88884 79.4884 5.95241C79.737 6.01598 79.9511 6.06799 79.9643 6.06799C79.9773 6.06799 79.988 5.76541 79.988 5.39565V4.72326L79.805 4.67587C79.1399 4.50356 78.6112 4.47875 75.6017 4.47875H72.6188V12.3768ZM44.2155 6.10613V6.92396L44.5746 7.27855C44.7721 7.4736 45.068 7.83902 45.2322 8.09065C45.3965 8.34228 45.5659 8.59771 45.6088 8.6583C45.6871 8.76882 46.7565 9.50002 46.7907 9.46635C46.8007 9.45648 46.5747 8.73656 46.2885 7.86652C45.9117 6.72126 45.739 6.26111 45.6628 6.19917C45.4863 6.05571 44.7935 5.60658 44.4961 5.44279L44.2155 5.28825V6.10613ZM83.1114 7.3427V8.42478L83.3361 8.76757C83.7456 9.39214 84.0944 10.2425 84.2696 11.0432C84.4063 11.6684 84.392 13.1079 84.2424 13.7676C84.0417 14.6527 83.7625 15.3323 83.3239 16.0036L83.1096 16.3316L83.1227 17.4237L83.1358 18.5159L83.7215 17.9382C84.0436 17.6206 84.4554 17.1549 84.6367 16.9034C85.0153 16.3783 85.5432 15.3637 85.7174 14.8265C86.5196 12.3522 86.1001 9.74721 84.5697 7.69951C84.2715 7.30042 83.2524 6.26062 83.1595 6.26062C83.1294 6.26062 83.1114 6.66429 83.1114 7.3427ZM64.2396 6.74905C63.8715 7.24566 63.8831 7.21624 63.8831 7.6578V8.07038L64.2427 8.60768C65.6471 10.7058 65.7978 13.2118 64.656 15.4801C64.5235 15.7434 64.2949 16.128 64.1481 16.3348L63.8811 16.7108L63.8942 17.6829L63.9075 18.655L64.3618 18.2787C65.6533 17.2093 66.5859 15.6724 66.9689 13.9823C67.0616 13.5727 67.0762 13.3649 67.0762 12.449C67.0762 11.5344 67.0614 11.3226 66.968 10.9C66.6096 9.27791 65.8309 7.84707 64.7221 6.77313L64.4308 6.49097L64.2396 6.74905ZM44.2155 12.456V12.9688L44.431 13.1961C44.5504 13.3221 44.67 13.507 44.6992 13.6105C44.7323 13.7283 44.7519 14.4477 44.752 15.5569L44.7523 17.3163L44.4839 17.5779L44.2155 17.8395V18.6519V19.4644L44.5312 19.2901L44.8469 19.1159L44.9862 19.3944C45.0628 19.5475 45.1658 19.8083 45.215 19.9738L45.3046 20.2748H45.8806H46.4567L46.4726 16.8676C46.4898 13.1555 46.4838 13.2353 46.7738 12.9151C47.076 12.5816 47.118 12.3826 46.9444 12.1055L46.8429 11.9433H45.5291H44.2155V12.456ZM34.2615 15.773L34.2597 17.5077L34.6867 17.9244C35.7799 18.9912 37.2046 19.7452 38.7495 20.0744C39.3702 20.2067 40.1842 20.2847 40.7505 20.266L41.2141 20.2507L41.2277 19.6126L41.2413 18.9745L40.5933 18.9744C39.4911 18.9741 38.6496 18.7711 37.6717 18.2698C36.1056 17.4668 34.9561 16.1242 34.3993 14.4476L34.2634 14.0382L34.2615 15.773ZM28.0626 16.3319L28.0617 18.3846L28.1885 18.6675C28.3313 18.9863 28.398 19.4238 28.3119 19.4764C28.2236 19.5303 28.2485 19.8771 28.3555 20.0841L28.4541 20.2748H29.7464H31.0387L31.0385 19.9738C31.0383 19.6355 30.9221 19.3869 30.7306 19.315C30.5915 19.2628 30.166 18.8054 30.0507 18.5841C30.0039 18.4942 29.5376 17.4888 29.0146 16.3499L28.0636 14.279L28.0626 16.3319ZM100.254 16.3528L100.269 18.4207L100.436 18.8704C100.6 19.31 100.602 19.3235 100.52 19.4643C100.409 19.6555 100.415 19.7944 100.544 20.0568L100.651 20.2748H101.959H103.267V20.0325C103.267 19.7314 103.171 19.4956 103 19.3778C102.724 19.188 102.524 19.0003 102.385 18.8005C102.305 18.6865 101.8 17.6337 101.262 16.461C100.724 15.2882 100.273 14.3189 100.261 14.3068C100.249 14.2948 100.246 15.2155 100.254 16.3528ZM52.6715 16.3235L52.6828 17.7901L53.1433 18.1898C54.5268 19.3906 56.202 20.0708 58.1572 20.2257C58.7492 20.2726 59.8041 20.2364 60.1971 20.1556C60.2649 20.1417 60.3753 20.119 60.4424 20.1053C60.5641 20.0804 60.5645 20.0788 60.5645 19.5218C60.5645 18.9655 60.564 18.9634 60.4546 18.9941C59.9046 19.1485 59.5628 19.1909 58.8807 19.1892C58.0905 19.1873 57.5867 19.1127 56.926 18.8999C55.1766 18.3364 53.5702 16.8984 52.8265 15.2301L52.6601 14.8569L52.6715 16.3235ZM26.7074 25.3633C26.6596 25.3824 26.6464 26.0098 26.6464 28.2731C26.6464 31.1265 26.6475 31.1586 26.744 31.1586C26.8324 31.1586 26.8416 31.1265 26.8416 30.8178V30.4769L27.0472 30.6506C27.4702 31.0079 27.933 31.1557 28.6351 31.1575L29.0866 31.1586V30.8709V30.5831L28.9279 30.6102C28.8407 30.625 28.7426 30.6452 28.7099 30.655C28.5481 30.7035 28.0432 30.5593 27.7742 30.3877C26.8716 29.8121 26.6454 28.6161 27.2812 27.7811C27.6585 27.2856 28.1985 27.0319 28.778 27.0778L29.0866 27.1022V26.8481C29.0866 26.5475 29.068 26.5354 28.6048 26.5354C28.0485 26.5354 27.4921 26.7163 27.0734 27.0334L26.8416 27.209V26.2702C26.8416 25.7539 26.8252 25.3332 26.805 25.3353C26.7849 25.3373 26.741 25.35 26.7074 25.3633ZM49.7058 25.4727L49.3642 25.6089L49.3489 25.8139C49.3404 25.9265 49.3569 26.0418 49.3855 26.07C49.4531 26.1368 49.4561 27.2578 49.3886 27.2578C49.361 27.2578 49.3398 27.3942 49.3398 27.5708C49.3398 27.7474 49.361 27.8839 49.3886 27.8839C49.42 27.8839 49.4374 28.359 49.4374 29.213C49.4374 30.3573 49.4487 30.5658 49.5193 30.7124C49.6055 30.8917 49.9732 31.1586 50.134 31.1586C50.2188 31.1586 50.2235 31.1298 50.1946 30.7854C50.1348 30.0734 50.1146 27.8839 50.1679 27.8839C50.1973 27.8839 50.2182 27.7539 50.2182 27.5708C50.2182 27.3942 50.1969 27.2578 50.1694 27.2578C50.1385 27.2578 50.1206 26.9046 50.1206 26.2946C50.1206 25.7649 50.1041 25.3326 50.084 25.334C50.0639 25.3353 49.8937 25.3978 49.7058 25.4727ZM41.9949 26.5793L41.7021 26.6636L41.6946 28.6221C41.6902 29.7786 41.7052 30.5697 41.7312 30.5538C41.7558 30.5388 41.7753 30.6676 41.7753 30.8447V31.1624L42.2023 31.1485L42.6294 31.1346L42.645 30.9735C42.6552 30.8682 42.63 30.7791 42.5718 30.7157C42.4893 30.6258 42.4819 30.4716 42.4683 28.5531C42.4548 26.6446 42.4474 26.4875 42.3707 26.4912C42.3251 26.4933 42.156 26.533 41.9949 26.5793ZM60.8207 26.5213L60.7109 26.5421V28.8504V31.1586H60.9539C61.1741 31.1586 61.2 31.147 61.2284 31.0353C61.248 30.9581 61.2287 30.8543 61.1768 30.7584C61.1036 30.6229 61.0957 30.46 61.1097 29.3768C61.1249 28.2075 61.1312 28.1367 61.2408 27.8976C61.426 27.4933 61.9559 27.0652 62.271 27.0652C62.3586 27.0652 62.3702 27.0344 62.3702 26.8003C62.3702 26.5433 62.3662 26.5354 62.236 26.536C61.9423 26.5372 61.3899 26.7341 61.1867 26.9099C61.1067 26.9791 61.1013 26.968 61.1013 26.7355C61.1013 26.4719 61.0971 26.4687 60.8207 26.5213ZM33.8692 26.6041C33.5166 26.7006 33.2286 26.8438 32.9542 27.059L32.698 27.2601V28.847V30.434L32.9391 30.6221C33.4086 30.9883 33.9053 31.1572 34.5159 31.1581L34.8941 31.1586V30.9009V30.6431H34.5603C33.7141 30.6431 32.9085 29.8718 32.8527 29.0083L32.833 28.7026H33.8636H34.8941V28.3895V28.0765H33.9668C33.4569 28.0765 33.0396 28.0646 33.0396 28.05C33.0396 27.9653 33.2091 27.7342 33.414 27.5397C33.7624 27.2088 34.0128 27.1008 34.4915 27.0749L34.8941 27.0531V26.7943V26.5354L34.4915 26.5397C34.27 26.5421 33.99 26.5711 33.8692 26.6041ZM39.341 26.6115C39.0221 26.6961 38.6616 26.8705 38.4321 27.0512L38.2615 27.1856V28.8551V30.5246L38.555 30.718C38.9882 31.0035 39.335 31.1178 39.8547 31.1466C40.1002 31.1601 40.3802 31.1566 40.477 31.1387L40.6529 31.1061V30.8142C40.6529 30.5541 40.6435 30.5263 40.5674 30.5595C40.5205 30.58 40.3173 30.6058 40.116 30.617C39.6378 30.6435 39.2893 30.5199 38.9306 30.1964C38.1344 29.4783 38.1065 28.3174 38.8672 27.5666C39.3176 27.1222 39.9141 26.9514 40.4573 27.1113C40.5511 27.1389 40.6334 27.1615 40.6403 27.1615C40.6472 27.1615 40.6529 27.034 40.6529 26.8782C40.6529 26.625 40.6411 26.5917 40.543 26.5658C40.3426 26.5128 39.6075 26.5407 39.341 26.6115ZM44.2643 28.5124V30.4893L44.4473 30.6569C44.548 30.7491 44.7725 30.8943 44.9463 30.9795C45.2447 31.1259 45.2924 31.1346 45.8004 31.1346H46.3384L46.3527 30.8401L46.3671 30.5456L46.1162 30.6098C45.4989 30.7678 44.8379 30.3405 44.6298 29.6491C44.5247 29.2997 44.5238 27.0789 44.6287 26.9419C44.7889 26.733 44.69 26.5354 44.4253 26.5354H44.2643V28.5124ZM47.1924 28.847V31.1586H47.602C48.0012 31.1586 48.0123 31.1555 48.043 31.0348C48.0643 30.951 48.0423 30.8595 47.9751 30.7522C47.8797 30.5999 47.8757 30.5204 47.8757 28.787C47.8757 27.2401 47.8862 26.972 47.9489 26.9207C48.0368 26.8487 48.0447 26.6733 47.9635 26.5932C47.9287 26.5588 47.7607 26.5354 47.5487 26.5354H47.1924V28.847ZM52.0239 27.194V27.8526L52.7347 29.3834L53.4454 30.9142L53.1978 31.3856C52.8596 32.0297 52.6417 32.3145 52.4871 32.3145C52.374 32.3145 52.3656 32.331 52.3656 32.5514C52.3656 32.7737 52.3743 32.7903 52.5069 32.819C52.9212 32.9088 53.2978 32.4948 53.9424 31.2407L54.2445 30.653L54.2575 29.8824L54.2705 29.1119L54.0694 29.5453C53.9588 29.7837 53.8628 29.9846 53.8561 29.9918C53.8494 29.9989 53.5238 29.3132 53.1324 28.4678C52.6792 27.4889 52.4301 26.8958 52.4464 26.8344C52.4912 26.6653 52.3812 26.5354 52.193 26.5354H52.0239V27.194ZM55.3543 26.5956C55.2712 26.6978 55.2345 27.0108 55.2147 27.7875L55.1956 28.534L55.5253 27.8318C55.7066 27.4456 55.9153 27.0592 55.9892 26.9733C56.0689 26.8805 56.1234 26.7598 56.1234 26.6762V26.5354H55.7633C55.534 26.5354 55.3855 26.5573 55.3543 26.5956ZM65.9217 26.6103C65.5942 26.6887 65.2021 26.8753 64.9445 27.0755L64.7615 27.2177V28.8476V30.4774L64.9445 30.6271C65.1963 30.8329 65.6404 31.0456 65.9517 31.1093C66.0946 31.1387 66.4069 31.1563 66.6456 31.1486L67.0796 31.1346L67.0943 30.8577C67.1104 30.5521 67.1189 30.558 66.7674 30.6323C66.5734 30.6734 66.4625 30.6685 66.2243 30.6083C64.8749 30.2671 64.4087 28.6157 65.3743 27.597C65.7076 27.2453 66.0583 27.0898 66.5184 27.0895C66.7197 27.0893 66.9339 27.107 66.9942 27.1286C67.1003 27.1666 67.104 27.1582 67.104 26.8814C67.104 26.6249 67.0925 26.5918 66.9942 26.5658C66.8056 26.5159 66.2137 26.5405 65.9217 26.6103ZM71.8569 26.6071C71.5077 26.6821 71.2205 26.8168 70.8985 27.0567L70.6667 27.2294V28.8554V30.4813L70.9281 30.676C71.0718 30.7832 71.3299 30.9286 71.5015 30.9993C71.7782 31.1132 71.8798 31.1281 72.3992 31.1311L72.9848 31.1346L72.9995 30.855L73.0142 30.5754L72.8287 30.6128C72.066 30.7662 71.2976 30.3613 70.9403 29.6176C70.8065 29.3391 70.79 29.2568 70.7911 28.8711C70.7919 28.5354 70.8172 28.3757 70.9029 28.1631C71.2034 27.4174 72.1216 26.9118 72.8262 27.1038L73.0092 27.1537V26.8743C73.0092 26.6252 72.9973 26.5917 72.8994 26.5658C72.717 26.5175 72.1738 26.5391 71.8569 26.6071ZM77.1725 26.6262C77.0332 26.6772 76.8959 26.7331 76.8675 26.7504C76.8354 26.7699 76.8172 27.0043 76.8192 27.369C76.8226 27.9359 76.8251 27.9496 76.8926 27.7678C76.9929 27.4977 77.1829 27.2715 77.4023 27.161C77.605 27.059 77.9504 27.0354 78.1493 27.1101C78.3355 27.1799 78.6164 27.4453 78.7342 27.6626C78.8358 27.8499 78.8419 27.928 78.8568 29.2236C78.8702 30.3994 78.8618 30.6032 78.7958 30.7027C78.7537 30.7662 78.7191 30.8947 78.7191 30.9884V31.1586H79.202C79.5972 31.1586 79.6901 31.1448 79.7144 31.0825C79.7646 30.9533 79.7474 30.8361 79.6688 30.7717C79.6035 30.7183 79.5955 30.5185 79.6078 29.2565L79.622 27.8029L79.7826 27.548C79.9293 27.3152 79.942 27.2647 79.929 26.9647L79.9148 26.6363L79.76 26.7104C79.6749 26.7512 79.5187 26.8577 79.4129 26.947L79.2205 27.1095L79.1058 26.9889C79.0427 26.9226 78.8492 26.7995 78.6759 26.7153C78.3995 26.581 78.3034 26.5605 77.8933 26.5478C77.5257 26.5366 77.3718 26.5533 77.1725 26.6262ZM63.0534 26.8994C63.0534 27.1993 63.0594 27.2146 63.212 27.3065C63.2992 27.359 63.4555 27.402 63.5593 27.4021C63.7314 27.4023 63.7454 27.3927 63.7179 27.2939C63.7014 27.2343 63.6739 27.1035 63.6569 27.0032C63.6244 26.8117 63.5743 26.7692 63.2462 26.6549L63.0534 26.5879V26.8994ZM81.2569 26.987C81.2569 27.2514 81.2765 27.3584 81.3337 27.4052C81.3759 27.4398 81.4583 27.5562 81.5167 27.6639C81.6176 27.85 81.6237 27.9294 81.6379 29.2486C81.6507 30.4416 81.6422 30.6536 81.5769 30.7519C81.5351 30.8148 81.5009 30.9321 81.5009 31.0125V31.1586H81.988C82.4743 31.1586 82.4752 31.1584 82.5076 31.031C82.5276 30.9523 82.5139 30.8645 82.4719 30.8022C82.4187 30.7233 82.3984 30.3741 82.3794 29.2082L82.355 27.7153L82.2234 27.4694C82.037 27.1205 81.8662 26.936 81.5796 26.7738C81.4424 26.6962 81.3136 26.6325 81.2935 26.6322C81.2734 26.6319 81.2569 26.7916 81.2569 26.987ZM35.8214 27.3573C35.8214 27.6289 35.8459 27.8873 35.8771 27.9449C35.919 28.0221 35.919 28.0524 35.8771 28.0662C35.843 28.0774 35.8214 28.2045 35.8214 28.3935V28.7026H36.2667H36.7121L36.6906 28.3C36.6739 27.9864 36.6392 27.837 36.5333 27.6234C36.405 27.3646 35.9689 26.8725 35.8678 26.8725C35.8415 26.8725 35.8214 27.0824 35.8214 27.3573ZM30.1241 27.5347C30.1365 27.8811 30.1716 28.1242 30.23 28.2691C30.3547 28.5793 30.3468 29.1308 30.2125 29.4805C30.1255 29.7071 30.1102 29.8361 30.1219 30.2487L30.1358 30.7446L30.3933 30.4864C31.0811 29.7963 31.2682 28.7392 30.8561 27.8718C30.7199 27.5854 30.252 27.017 30.1523 27.017C30.124 27.017 30.1127 27.2225 30.1241 27.5347ZM68.0801 27.5306C68.0801 27.9273 68.1014 28.1127 68.1629 28.2512C68.2735 28.5006 68.2725 29.1771 68.1611 29.4671C68.1045 29.6145 68.0801 29.829 68.0801 30.1809V30.684L68.2264 30.5711C68.4493 30.3989 68.7444 29.9854 68.8641 29.6773C68.9982 29.3323 69.0418 28.7393 68.96 28.3722C68.8743 27.9873 68.6064 27.5081 68.3229 27.2325L68.0801 26.9965V27.5306ZM73.9853 27.514C73.9853 27.8773 74.0082 28.0848 74.0622 28.2105C74.1984 28.5276 74.2093 29.037 74.0877 29.4106C74.0014 29.6758 73.9838 29.8294 73.9954 30.2196L74.0097 30.7011L74.2705 30.4438C74.4402 30.2763 74.5932 30.0578 74.7084 29.8182C74.8661 29.4908 74.8877 29.399 74.9045 28.9866C74.9345 28.2491 74.7307 27.7183 74.2321 27.2355L73.9853 26.9965V27.514ZM50.6087 27.5708V27.8839H50.7573C50.9018 27.8839 50.9051 27.8789 50.876 27.7033C50.8061 27.281 50.797 27.2578 50.7024 27.2578C50.6195 27.2578 50.6087 27.2942 50.6087 27.5708ZM35.9453 29.894C35.8319 30.0147 35.8214 30.0623 35.8214 30.4537C35.8214 30.7874 35.8348 30.8718 35.8824 30.8373C35.9159 30.8131 36.0477 30.7114 36.1752 30.6115L36.407 30.4298V30.0959V29.762H36.2381C36.1168 29.762 36.0344 29.7992 35.9453 29.894ZM50.6087 30.7722V31.1562L50.7412 31.1065C50.9684 31.0213 50.9991 30.9695 50.9991 30.6712V30.3881H50.8039H50.6087V30.7722Z" fill="#D8BA9E"/>
</svg>
