<svg width="24" height="18" viewBox="0 0 24 18" fill="none" xmlns="http://www.w3.org/2000/svg">
<path d="M21.199 9.07728H20.1141V15.9428L15.361 11.5297L14.4505 12.3751L19.1195 16.7163H3.10384L7.6244 12.3751L6.69446 11.5417L2.03182 16.0207V5.63552L10.059 13.0527C10.301 13.276 10.6284 13.4014 10.9696 13.4014C11.3108 13.4014 11.6382 13.276 11.8802 13.0527L16.1812 9.07728H14.3536L10.9696 12.2012L2.87781 4.72412H12.4033L13.1459 3.5249H2.03182C1.68927 3.5249 1.36075 3.65125 1.11853 3.87614C0.876312 4.10104 0.740234 4.40607 0.740234 4.72412V16.7163C0.740234 17.0343 0.876312 17.3394 1.11853 17.5643C1.36075 17.7892 1.68927 17.9155 2.03182 17.9155H20.1141C20.4566 17.9155 20.7851 17.7892 21.0274 17.5643C21.2696 17.3394 21.4057 17.0343 21.4057 16.7163V9.06528L21.199 9.07728Z" fill="#E4DAC9"/>
<path d="M17.8581 0.396651L13.9179 6.59712C13.8425 6.71831 13.8031 6.85527 13.8037 6.99449C13.8043 7.13372 13.8449 7.27039 13.9214 7.39104C13.9979 7.51168 14.1077 7.61213 14.2399 7.68248C14.3722 7.75282 14.5224 7.79063 14.6757 7.79217H22.563C22.7162 7.79063 22.8664 7.75282 22.9987 7.68248C23.131 7.61213 23.2408 7.51168 23.3173 7.39104C23.3938 7.27039 23.4343 7.13372 23.4349 6.99449C23.4355 6.85527 23.3962 6.71831 23.3207 6.59712L19.3805 0.396651C19.3028 0.27593 19.1916 0.175794 19.0581 0.106205C18.9246 0.0366159 18.7733 0 18.6193 0C18.4654 0 18.3141 0.0366159 18.1805 0.106205C18.047 0.175794 17.9358 0.27593 17.8581 0.396651Z" fill="#E4DAC9"/>
</svg>
