
<svg width="148" height="37" viewBox="0 0 148 37" fill="none" xmlns="http://www.w3.org/2000/svg">
<path d="M26.652 24V14.2H34.898V24H33.876V14.816L34.142 15.096H27.408L27.674 14.816V24H26.652ZM40.9907 24.07C40.2814 24.07 39.6421 23.9113 39.0727 23.594C38.5127 23.2673 38.0694 22.824 37.7427 22.264C37.4161 21.6947 37.2527 21.046 37.2527 20.318C37.2527 19.5807 37.4161 18.932 37.7427 18.372C38.0694 17.812 38.5127 17.3733 39.0727 17.056C39.6327 16.7387 40.2721 16.58 40.9907 16.58C41.7187 16.58 42.3627 16.7387 42.9227 17.056C43.4921 17.3733 43.9354 17.812 44.2527 18.372C44.5794 18.932 44.7427 19.5807 44.7427 20.318C44.7427 21.046 44.5794 21.6947 44.2527 22.264C43.9354 22.824 43.4921 23.2673 42.9227 23.594C42.3534 23.9113 41.7094 24.07 40.9907 24.07ZM40.9907 23.188C41.5227 23.188 41.9941 23.0713 42.4047 22.838C42.8154 22.5953 43.1374 22.2593 43.3707 21.83C43.6134 21.3913 43.7347 20.8873 43.7347 20.318C43.7347 19.7393 43.6134 19.2353 43.3707 18.806C43.1374 18.3767 42.8154 18.0453 42.4047 17.812C41.9941 17.5693 41.5274 17.448 41.0047 17.448C40.4821 17.448 40.0154 17.5693 39.6047 17.812C39.1941 18.0453 38.8674 18.3767 38.6247 18.806C38.3821 19.2353 38.2607 19.7393 38.2607 20.318C38.2607 20.8873 38.3821 21.3913 38.6247 21.83C38.8674 22.2593 39.1941 22.5953 39.6047 22.838C40.0154 23.0713 40.4774 23.188 40.9907 23.188ZM51.8661 23.524V17.518H48.3241L48.2401 19.156C48.2214 19.6507 48.1888 20.136 48.1421 20.612C48.1048 21.088 48.0348 21.5267 47.9321 21.928C47.8388 22.32 47.7034 22.642 47.5261 22.894C47.3488 23.1367 47.1201 23.2767 46.8401 23.314L45.8461 23.132C46.1354 23.1413 46.3734 23.0387 46.5601 22.824C46.7468 22.6 46.8914 22.2967 46.9941 21.914C47.0968 21.5313 47.1714 21.0973 47.2181 20.612C47.2648 20.1173 47.3021 19.6133 47.3301 19.1L47.4281 16.65H52.8601V23.524H51.8661ZM45.5381 25.778V23.132H54.0081V25.778H53.0701V24H46.4761V25.778H45.5381ZM59.7393 24.07C59.1046 24.07 58.5306 23.9253 58.0173 23.636C57.5039 23.3373 57.0933 22.9127 56.7853 22.362C56.4866 21.802 56.3373 21.1207 56.3373 20.318C56.3373 19.5153 56.4866 18.8387 56.7853 18.288C57.0839 17.728 57.4899 17.3033 58.0033 17.014C58.5166 16.7247 59.0953 16.58 59.7393 16.58C60.4393 16.58 61.0646 16.7387 61.6153 17.056C62.1753 17.364 62.6139 17.8027 62.9313 18.372C63.2486 18.932 63.4073 19.5807 63.4073 20.318C63.4073 21.0647 63.2486 21.718 62.9313 22.278C62.6139 22.838 62.1753 23.2767 61.6153 23.594C61.0646 23.9113 60.4393 24.07 59.7393 24.07ZM55.9453 26.716V16.65H56.8973V18.862L56.7993 20.332L56.9393 21.816V26.716H55.9453ZM59.6693 23.188C60.1919 23.188 60.6586 23.0713 61.0693 22.838C61.4799 22.5953 61.8066 22.2593 62.0493 21.83C62.2919 21.3913 62.4133 20.8873 62.4133 20.318C62.4133 19.7487 62.2919 19.2493 62.0493 18.82C61.8066 18.3907 61.4799 18.0547 61.0693 17.812C60.6586 17.5693 60.1919 17.448 59.6693 17.448C59.1466 17.448 58.6753 17.5693 58.2553 17.812C57.8446 18.0547 57.5179 18.3907 57.2753 18.82C57.0419 19.2493 56.9253 19.7487 56.9253 20.318C56.9253 20.8873 57.0419 21.3913 57.2753 21.83C57.5179 22.2593 57.8446 22.5953 58.2553 22.838C58.6753 23.0713 59.1466 23.188 59.6693 23.188ZM68.5669 24.07C67.8576 24.07 67.2182 23.9113 66.6489 23.594C66.0889 23.2673 65.6456 22.824 65.3189 22.264C64.9922 21.6947 64.8289 21.046 64.8289 20.318C64.8289 19.5807 64.9922 18.932 65.3189 18.372C65.6456 17.812 66.0889 17.3733 66.6489 17.056C67.2089 16.7387 67.8482 16.58 68.5669 16.58C69.2949 16.58 69.9389 16.7387 70.4989 17.056C71.0682 17.3733 71.5116 17.812 71.8289 18.372C72.1556 18.932 72.3189 19.5807 72.3189 20.318C72.3189 21.046 72.1556 21.6947 71.8289 22.264C71.5116 22.824 71.0682 23.2673 70.4989 23.594C69.9296 23.9113 69.2856 24.07 68.5669 24.07ZM68.5669 23.188C69.0989 23.188 69.5702 23.0713 69.9809 22.838C70.3916 22.5953 70.7136 22.2593 70.9469 21.83C71.1896 21.3913 71.3109 20.8873 71.3109 20.318C71.3109 19.7393 71.1896 19.2353 70.9469 18.806C70.7136 18.3767 70.3916 18.0453 69.9809 17.812C69.5702 17.5693 69.1036 17.448 68.5809 17.448C68.0582 17.448 67.5916 17.5693 67.1809 17.812C66.7702 18.0453 66.4436 18.3767 66.2009 18.806C65.9582 19.2353 65.8369 19.7393 65.8369 20.318C65.8369 20.8873 65.9582 21.3913 66.2009 21.83C66.4436 22.2593 66.7702 22.5953 67.1809 22.838C67.5916 23.0713 68.0536 23.188 68.5669 23.188ZM77.7473 24.084C77.15 24.084 76.618 23.986 76.1513 23.79C75.694 23.594 75.302 23.2953 74.9753 22.894C74.6486 22.4927 74.4013 21.998 74.2333 21.41C74.0653 20.8127 73.9813 20.122 73.9813 19.338C73.9813 18.638 74.0466 18.0267 74.1773 17.504C74.308 16.972 74.49 16.5147 74.7233 16.132C74.9566 15.7493 75.2273 15.4273 75.5353 15.166C75.8526 14.8953 76.1933 14.6807 76.5573 14.522C76.9306 14.354 77.3133 14.228 77.7053 14.144L81.0093 13.374L81.1773 14.298L78.0693 14.998C77.8733 15.0447 77.6353 15.11 77.3553 15.194C77.0846 15.278 76.8046 15.404 76.5153 15.572C76.2353 15.74 75.974 15.9733 75.7313 16.272C75.4886 16.5707 75.2926 16.958 75.1433 17.434C75.0033 17.9007 74.9333 18.484 74.9333 19.184C74.9333 19.3333 74.938 19.4547 74.9473 19.548C74.9566 19.632 74.966 19.7253 74.9753 19.828C74.994 19.9213 75.008 20.0613 75.0173 20.248L74.5833 19.884C74.686 19.3147 74.896 18.82 75.2133 18.4C75.5306 17.9707 75.9273 17.6393 76.4033 17.406C76.8886 17.1633 77.4253 17.042 78.0133 17.042C78.6946 17.042 79.3013 17.1913 79.8333 17.49C80.3653 17.7793 80.7806 18.1853 81.0793 18.708C81.3873 19.2307 81.5413 19.8373 81.5413 20.528C81.5413 21.2093 81.3826 21.8207 81.0653 22.362C80.7573 22.9033 80.3186 23.328 79.7493 23.636C79.18 23.9347 78.5126 24.084 77.7473 24.084ZM77.8593 23.258C78.382 23.258 78.844 23.1413 79.2453 22.908C79.6466 22.6653 79.9593 22.3387 80.1833 21.928C80.4166 21.5173 80.5333 21.0553 80.5333 20.542C80.5333 20.038 80.4166 19.59 80.1833 19.198C79.9593 18.806 79.6466 18.498 79.2453 18.274C78.844 18.0407 78.3773 17.924 77.8453 17.924C77.3226 17.924 76.8606 18.036 76.4593 18.26C76.058 18.4747 75.7406 18.778 75.5073 19.17C75.2833 19.562 75.1713 20.0147 75.1713 20.528C75.1713 21.0413 75.2833 21.5033 75.5073 21.914C75.7406 22.3247 76.058 22.6513 76.4593 22.894C76.87 23.1367 77.3366 23.258 77.8593 23.258ZM83.6718 24V16.65H84.6658V19.898H89.2998V16.65H90.2938V24H89.2998V20.752H84.6658V24H83.6718ZM96.2691 24.07C95.5037 24.07 94.8317 23.9113 94.2531 23.594C93.6744 23.2673 93.2217 22.824 92.8951 22.264C92.5684 21.6947 92.4051 21.046 92.4051 20.318C92.4051 19.59 92.5591 18.946 92.8671 18.386C93.1844 17.826 93.6137 17.3873 94.1551 17.07C94.7057 16.7433 95.3217 16.58 96.0031 16.58C96.6937 16.58 97.3051 16.7387 97.8371 17.056C98.3784 17.364 98.8031 17.8027 99.1111 18.372C99.4191 18.932 99.5731 19.5807 99.5731 20.318C99.5731 20.3647 99.5684 20.416 99.5591 20.472C99.5591 20.5187 99.5591 20.57 99.5591 20.626H93.1611V19.884H99.0271L98.6351 20.178C98.6351 19.646 98.5184 19.1747 98.2851 18.764C98.0611 18.344 97.7531 18.0173 97.3611 17.784C96.9691 17.5507 96.5164 17.434 96.0031 17.434C95.4991 17.434 95.0464 17.5507 94.6451 17.784C94.2437 18.0173 93.9311 18.344 93.7071 18.764C93.4831 19.184 93.3711 19.6647 93.3711 20.206V20.36C93.3711 20.92 93.4924 21.4147 93.7351 21.844C93.9871 22.264 94.3324 22.5953 94.7711 22.838C95.2191 23.0713 95.7277 23.188 96.2971 23.188C96.7451 23.188 97.1604 23.1087 97.5431 22.95C97.9351 22.7913 98.2711 22.5487 98.5511 22.222L99.1111 22.866C98.7844 23.258 98.3737 23.5567 97.8791 23.762C97.3937 23.9673 96.8571 24.07 96.2691 24.07ZM104.923 24.07C104.158 24.07 103.486 23.9113 102.907 23.594C102.329 23.2673 101.876 22.824 101.549 22.264C101.223 21.6947 101.059 21.046 101.059 20.318C101.059 19.59 101.213 18.946 101.521 18.386C101.839 17.826 102.268 17.3873 102.809 17.07C103.36 16.7433 103.976 16.58 104.657 16.58C105.348 16.58 105.959 16.7387 106.491 17.056C107.033 17.364 107.457 17.8027 107.765 18.372C108.073 18.932 108.227 19.5807 108.227 20.318C108.227 20.3647 108.223 20.416 108.213 20.472C108.213 20.5187 108.213 20.57 108.213 20.626H101.815V19.884H107.681L107.289 20.178C107.289 19.646 107.173 19.1747 106.939 18.764C106.715 18.344 106.407 18.0173 106.015 17.784C105.623 17.5507 105.171 17.434 104.657 17.434C104.153 17.434 103.701 17.5507 103.299 17.784C102.898 18.0173 102.585 18.344 102.361 18.764C102.137 19.184 102.025 19.6647 102.025 20.206V20.36C102.025 20.92 102.147 21.4147 102.389 21.844C102.641 22.264 102.987 22.5953 103.425 22.838C103.873 23.0713 104.382 23.188 104.951 23.188C105.399 23.188 105.815 23.1087 106.197 22.95C106.589 22.7913 106.925 22.5487 107.205 22.222L107.765 22.866C107.439 23.258 107.028 23.5567 106.533 23.762C106.048 23.9673 105.511 24.07 104.923 24.07Z" fill="url(#paint0_linear_43_4227)"/>
<rect x="0.25" y="0.25" width="147.5" height="36.5" stroke="url(#paint1_linear_43_4227)" stroke-width="0.5"/>
<path d="M137.177 19.1768C137.274 19.0791 137.274 18.9209 137.177 18.8232L135.586 17.2322C135.488 17.1346 135.33 17.1346 135.232 17.2322C135.135 17.3299 135.135 17.4882 135.232 17.5858L136.646 19L135.232 20.4142C135.135 20.5118 135.135 20.6701 135.232 20.7678C135.33 20.8654 135.488 20.8654 135.586 20.7678L137.177 19.1768ZM117 19.25H137V18.75H117V19.25Z" fill="url(#paint2_linear_43_4227)"/>
<defs>
<linearGradient id="paint0_linear_43_4227" x1="25" y1="18.5" x2="110" y2="18.5" gradientUnits="userSpaceOnUse">
<stop stop-color="#E4DAC9"/>
<stop offset="1" stop-color="#D8BA9E"/>
</linearGradient>
<linearGradient id="paint1_linear_43_4227" x1="0" y1="18.5" x2="148" y2="18.5" gradientUnits="userSpaceOnUse">
<stop stop-color="#E4DAC9"/>
<stop offset="1" stop-color="#D8BA9E"/>
</linearGradient>
<linearGradient id="paint2_linear_43_4227" x1="117" y1="19.5" x2="137" y2="19.5" gradientUnits="userSpaceOnUse">
<stop stop-color="#E4DAC9"/>
<stop offset="1" stop-color="#D8BA9E"/>
</linearGradient>
</defs>
</svg>
