<svg width="92" height="92" viewBox="0 0 92 92" fill="none" xmlns="http://www.w3.org/2000/svg">
<g filter="url(#filter0_d_43_3633)">
<g filter="url(#filter1_d_43_3633)">
<circle cx="46" cy="42" r="36" fill="url(#paint0_radial_43_3633)" shape-rendering="crispEdges"/>
</g>
<path d="M46 26.5C37.18 26.5 30 32.78 30 40.5C30 48.22 37.18 54.5 46 54.5C47.6501 54.4981 49.2922 54.2693 50.88 53.82L56.41 57.34C56.561 57.4369 56.7352 57.4913 56.9145 57.4977C57.0937 57.5041 57.2714 57.4621 57.4289 57.3762C57.5863 57.2903 57.7178 57.1637 57.8095 57.0095C57.9012 56.8554 57.9497 56.6794 57.95 56.5V49.77C59.2012 48.5697 60.1997 47.1312 60.8867 45.5392C61.5736 43.9472 61.9352 42.2338 61.95 40.5C62 32.78 54.82 26.5 46 26.5ZM56.29 48.61C56.1895 48.7032 56.1092 48.8162 56.0541 48.9417C55.9991 49.0673 55.9704 49.2029 55.97 49.34V54.68L51.59 51.89C51.4678 51.8128 51.3304 51.7629 51.1871 51.744C51.0438 51.725 50.8981 51.7373 50.76 51.78C49.2187 52.2587 47.6139 52.5014 46 52.5C38.28 52.5 32 47.12 32 40.5C32 33.88 38.28 28.5 46 28.5C53.72 28.5 60 33.88 60 40.5C59.9772 42.0351 59.6356 43.5487 58.997 44.9448C58.3583 46.3408 57.4365 47.589 56.29 48.61Z" fill="#E4DAC9"/>
<path d="M53 39.5H39C38.7348 39.5 38.4804 39.6054 38.2929 39.7929C38.1054 39.9804 38 40.2348 38 40.5C38 40.7652 38.1054 41.0196 38.2929 41.2071C38.4804 41.3946 38.7348 41.5 39 41.5H53C53.2652 41.5 53.5196 41.3946 53.7071 41.2071C53.8946 41.0196 54 40.7652 54 40.5C54 40.2348 53.8946 39.9804 53.7071 39.7929C53.5196 39.6054 53.2652 39.5 53 39.5Z" fill="#E4DAC9"/>
<path d="M49.75 44.5H42.25C41.9848 44.5 41.7304 44.6054 41.5429 44.7929C41.3554 44.9804 41.25 45.2348 41.25 45.5C41.25 45.7652 41.3554 46.0196 41.5429 46.2071C41.7304 46.3946 41.9848 46.5 42.25 46.5H49.75C50.0152 46.5 50.2696 46.3946 50.4571 46.2071C50.6446 46.0196 50.75 45.7652 50.75 45.5C50.75 45.2348 50.6446 44.9804 50.4571 44.7929C50.2696 44.6054 50.0152 44.5 49.75 44.5Z" fill="#E4DAC9"/>
<path d="M39.2803 36.5H52.7203C52.9855 36.5 53.2398 36.3946 53.4274 36.2071C53.6149 36.0196 53.7203 35.7652 53.7203 35.5C53.7203 35.2348 53.6149 34.9804 53.4274 34.7929C53.2398 34.6054 52.9855 34.5 52.7203 34.5H39.2803C39.0151 34.5 38.7607 34.6054 38.5732 34.7929C38.3856 34.9804 38.2803 35.2348 38.2803 35.5C38.2803 35.7652 38.3856 36.0196 38.5732 36.2071C38.7607 36.3946 39.0151 36.5 39.2803 36.5Z" fill="#E4DAC9"/>
</g>
<defs>
<filter id="filter0_d_43_3633" x="0" y="0" width="92" height="92" filterUnits="userSpaceOnUse" color-interpolation-filters="sRGB">
<feFlood flood-opacity="0" result="BackgroundImageFix"/>

<feOffset dy="4"/>
<feGaussianBlur stdDeviation="5"/>
<feComposite in2="hardAlpha" operator="out"/>
<feColorMatrix type="matrix" values="0 0 0 0 0.118339 0 0 0 0 0.298333 0 0 0 0 0.271061 0 0 0 1 0"/>
<feBlend mode="normal" in2="BackgroundImageFix" result="effect1_dropShadow_43_3633"/>
<feBlend mode="normal" in="SourceGraphic" in2="effect1_dropShadow_43_3633" result="shape"/>
</filter>
<filter id="filter1_d_43_3633" x="0" y="0" width="92" height="92" filterUnits="userSpaceOnUse" color-interpolation-filters="sRGB">
<feFlood flood-opacity="0" result="BackgroundImageFix"/>
<feColorMatrix in="SourceAlpha" type="matrix" values="0 0 0 0 0 0 0 0 0 0 0 0 0 0 0 0 0 0 127 0" result="hardAlpha"/>
<feOffset dy="4"/>
<feGaussianBlur stdDeviation="5"/>
<feComposite in2="hardAlpha" operator="out"/>
<feColorMatrix type="matrix" values="0 0 0 0 0.118339 0 0 0 0 0.298333 0 0 0 0 0.271061 0 0 0 1 0"/>
<feBlend mode="normal" in2="BackgroundImageFix" result="effect1_dropShadow_43_3633"/>
<feBlend mode="normal" in="SourceGraphic" in2="effect1_dropShadow_43_3633" result="shape"/>
</filter>
<radialGradient id="paint0_radial_43_3633" cx="0" cy="0" r="1" gradientUnits="userSpaceOnUse" gradientTransform="translate(46 42) rotate(89.7031) scale(36.0005)">
<stop stop-color="#12332E"/>
<stop offset="1" stop-color="#061311" stop-opacity="0.5"/>
</radialGradient>
</defs>
</svg>
