<svg width="20" height="21" viewBox="0 0 20 21" fill="none" xmlns="http://www.w3.org/2000/svg">
<g clip-path="url(#clip0_21_299)">
<path d="M15 11.5222H13.75C13.7495 11.0229 13.5518 10.5442 13.2003 10.1912C12.8488 9.83819 12.3721 9.63964 11.875 9.63914V8.38379C12.7035 8.38479 13.4978 8.71576 14.0836 9.3041C14.6694 9.89245 14.999 10.6901 15 11.5222Z" fill="#E4DAC9"/>
<path d="M17.5 11.5221H16.25C16.2487 10.3573 15.7873 9.24046 14.9671 8.41676C14.1469 7.59307 13.0349 7.12973 11.875 7.1284V5.87305C13.3663 5.87471 14.7961 6.47041 15.8506 7.52946C16.9052 8.58851 17.4983 10.0244 17.5 11.5221Z" fill="#E4DAC9"/>
<path d="M16.2497 21.565H16.1434C3.86216 20.8557 2.11841 10.4488 1.87466 7.27276C1.83656 6.77485 1.99696 6.28214 2.32057 5.90299C2.64418 5.52385 3.1045 5.28933 3.60028 5.25101C3.64986 5.24724 3.69966 5.24536 3.74966 5.24536H7.04341C7.29375 5.24512 7.53841 5.32038 7.74568 5.46138C7.95294 5.60239 8.11328 5.80266 8.20591 6.03623L9.15591 8.38375C9.24738 8.61193 9.27007 8.86208 9.22118 9.10312C9.17229 9.34415 9.05397 9.56545 8.88091 9.73953L7.54966 11.089C7.75676 12.2762 8.3224 13.3706 9.16987 14.224C10.0173 15.0773 11.1056 15.6483 12.2872 15.8594L13.6434 14.5099C13.8193 14.338 14.0418 14.2219 14.283 14.1762C14.5241 14.1304 14.7734 14.157 14.9997 14.2525L17.3559 15.2003C17.585 15.2963 17.7804 15.4586 17.9173 15.6665C18.0542 15.8744 18.1264 16.1185 18.1247 16.3678V19.6819C18.1247 20.1813 17.9271 20.6603 17.5755 21.0134C17.2239 21.3666 16.7469 21.565 16.2497 21.565ZM3.74966 6.50072C3.66758 6.50047 3.58626 6.51646 3.51034 6.54777C3.43441 6.57909 3.36538 6.62511 3.30716 6.68323C3.24895 6.74134 3.20271 6.81039 3.17107 6.88645C3.13944 6.96251 3.12303 7.04408 3.12278 7.12651C3.12278 7.14408 3.12341 7.16145 3.12466 7.17861C3.41216 10.8945 5.25591 19.6819 16.2122 20.3096C16.3776 20.3196 16.5402 20.2631 16.6642 20.1527C16.7882 20.0423 16.8634 19.887 16.8734 19.7208L16.8747 19.6819V16.3678L14.5184 15.42L12.7247 17.2089L12.4247 17.1712C6.98716 16.4871 6.24966 11.0263 6.24966 10.9698L6.21216 10.6685L7.98716 8.86706L7.04966 6.50072H3.74966Z" fill="#E4DAC9"/>
</g>
<defs>
<clipPath id="clip0_21_299">
<rect width="20" height="20" fill="white" transform="translate(0 0.257324)"/>
</clipPath>
</defs>
</svg>
