<svg width="193" height="193" viewBox="0 0 193 193" fill="none" xmlns="http://www.w3.org/2000/svg">
<circle cx="96.5" cy="96.5" r="96" fill="url(#paint0_radial_21_25)" stroke="url(#paint1_linear_21_25)"/>
<path d="M24.7 96.32L25.24 95.26C25.8533 95.7933 26.54 96.1933 27.3 96.46C28.0733 96.7133 28.8467 96.8467 29.62 96.86C30.3933 96.86 31.1 96.7467 31.74 96.52C32.3933 96.2933 32.92 95.96 33.32 95.52C33.72 95.0667 33.92 94.52 33.92 93.88C33.92 93.0667 33.5933 92.44 32.94 92C32.3 91.56 31.4067 91.34 30.26 91.34H27.26V90.14H30.18C31.1667 90.14 31.9333 89.9333 32.48 89.52C33.04 89.0933 33.32 88.5067 33.32 87.76C33.32 87.2267 33.16 86.7733 32.84 86.4C32.5333 86.0133 32.1067 85.72 31.56 85.52C31.0267 85.3067 30.4267 85.1933 29.76 85.18C29.0933 85.1533 28.4 85.24 27.68 85.44C26.9733 85.6267 26.2867 85.9267 25.62 86.34L25.14 85.12C25.9667 84.6267 26.8267 84.2867 27.72 84.1C28.6133 83.9 29.48 83.8333 30.32 83.9C31.16 83.9667 31.9133 84.16 32.58 84.48C33.26 84.8 33.8 85.22 34.2 85.74C34.6 86.26 34.8 86.88 34.8 87.6C34.8 88.2667 34.6267 88.8533 34.28 89.36C33.9467 89.8667 33.4733 90.26 32.86 90.54C32.26 90.8067 31.5467 90.94 30.72 90.94L30.8 90.5C31.7333 90.5 32.54 90.6467 33.22 90.94C33.9133 91.2333 34.4467 91.6533 34.82 92.2C35.2067 92.7333 35.4 93.36 35.4 94.08C35.4 94.76 35.2267 95.3667 34.88 95.9C34.5467 96.42 34.08 96.86 33.48 97.22C32.8933 97.5667 32.2333 97.82 31.5 97.98C30.7667 98.1267 30 98.1667 29.2 98.1C28.4 98.0333 27.6133 97.86 26.84 97.58C26.0667 97.2867 25.3533 96.8667 24.7 96.32ZM45.2548 98V95.68L45.1948 95.3V91.42C45.1948 90.5267 44.9415 89.84 44.4348 89.36C43.9415 88.88 43.2015 88.64 42.2148 88.64C41.5348 88.64 40.8882 88.7533 40.2748 88.98C39.6615 89.2067 39.1415 89.5067 38.7148 89.88L38.0748 88.82C38.6082 88.3667 39.2482 88.02 39.9948 87.78C40.7415 87.5267 41.5282 87.4 42.3548 87.4C43.7148 87.4 44.7615 87.74 45.4948 88.42C46.2415 89.0867 46.6148 90.1067 46.6148 91.48V98H45.2548ZM41.6348 98.1C40.8482 98.1 40.1615 97.9733 39.5748 97.72C39.0015 97.4533 38.5615 97.0933 38.2548 96.64C37.9482 96.1733 37.7948 95.64 37.7948 95.04C37.7948 94.4933 37.9215 94 38.1748 93.56C38.4415 93.1067 38.8682 92.7467 39.4548 92.48C40.0548 92.2 40.8548 92.06 41.8548 92.06H45.4748V93.12H41.8948C40.8815 93.12 40.1748 93.3 39.7748 93.66C39.3882 94.02 39.1948 94.4667 39.1948 95C39.1948 95.6 39.4282 96.08 39.8948 96.44C40.3615 96.8 41.0148 96.98 41.8548 96.98C42.6548 96.98 43.3415 96.8 43.9148 96.44C44.5015 96.0667 44.9282 95.5333 45.1948 94.84L45.5148 95.82C45.2482 96.5133 44.7815 97.0667 44.1148 97.48C43.4615 97.8933 42.6348 98.1 41.6348 98.1ZM50.395 98V87.5H59.835V98H58.415V88.36L58.775 88.74H51.455L51.815 88.36V98H50.395ZM63.8716 98V87.5H65.2916V95.84L72.3116 87.5H73.5716V98H72.1516V89.64L65.1516 98H63.8716ZM82.0411 98.1C81.0011 98.1 80.0678 97.8733 79.2411 97.42C78.4278 96.9533 77.7878 96.32 77.3211 95.52C76.8544 94.7067 76.6211 93.78 76.6211 92.74C76.6211 91.6867 76.8544 90.76 77.3211 89.96C77.7878 89.16 78.4278 88.5333 79.2411 88.08C80.0678 87.6267 81.0011 87.4 82.0411 87.4C82.9344 87.4 83.7411 87.5733 84.4611 87.92C85.1811 88.2667 85.7478 88.7867 86.1611 89.48L85.1011 90.2C84.7411 89.6667 84.2944 89.2733 83.7611 89.02C83.2278 88.7667 82.6478 88.64 82.0211 88.64C81.2744 88.64 80.6011 88.8133 80.0011 89.16C79.4011 89.4933 78.9278 89.9667 78.5811 90.58C78.2344 91.1933 78.0611 91.9133 78.0611 92.74C78.0611 93.5667 78.2344 94.2867 78.5811 94.9C78.9278 95.5133 79.4011 95.9933 80.0011 96.34C80.6011 96.6733 81.2744 96.84 82.0211 96.84C82.6478 96.84 83.2278 96.7133 83.7611 96.46C84.2944 96.2067 84.7411 95.82 85.1011 95.3L86.1611 96.02C85.7478 96.7 85.1811 97.22 84.4611 97.58C83.7411 97.9267 82.9344 98.1 82.0411 98.1ZM95.4306 98V95.68L95.3706 95.3V91.42C95.3706 90.5267 95.1173 89.84 94.6106 89.36C94.1173 88.88 93.3773 88.64 92.3906 88.64C91.7106 88.64 91.064 88.7533 90.4506 88.98C89.8373 89.2067 89.3173 89.5067 88.8906 89.88L88.2506 88.82C88.784 88.3667 89.424 88.02 90.1706 87.78C90.9173 87.5267 91.704 87.4 92.5306 87.4C93.8906 87.4 94.9373 87.74 95.6706 88.42C96.4173 89.0867 96.7906 90.1067 96.7906 91.48V98H95.4306ZM91.8106 98.1C91.024 98.1 90.3373 97.9733 89.7506 97.72C89.1773 97.4533 88.7373 97.0933 88.4306 96.64C88.124 96.1733 87.9706 95.64 87.9706 95.04C87.9706 94.4933 88.0973 94 88.3506 93.56C88.6173 93.1067 89.044 92.7467 89.6306 92.48C90.2306 92.2 91.0306 92.06 92.0306 92.06H95.6506V93.12H92.0706C91.0573 93.12 90.3506 93.3 89.9506 93.66C89.564 94.02 89.3706 94.4667 89.3706 95C89.3706 95.6 89.604 96.08 90.0706 96.44C90.5373 96.8 91.1906 96.98 92.0306 96.98C92.8306 96.98 93.5173 96.8 94.0906 96.44C94.6773 96.0667 95.104 95.5333 95.3706 94.84L95.6906 95.82C95.424 96.5133 94.9573 97.0667 94.2906 97.48C93.6373 97.8933 92.8106 98.1 91.8106 98.1ZM102.571 98V88.36L102.931 88.74H98.5908V87.5H107.971V88.74H103.631L103.991 88.36V98H102.571ZM114.544 91.2C115.864 91.2133 116.864 91.5067 117.544 92.08C118.237 92.6533 118.584 93.48 118.584 94.56C118.584 95.68 118.211 96.54 117.464 97.14C116.731 97.74 115.664 98.0333 114.264 98.02L110.024 98V87.5H111.444V91.16L114.544 91.2ZM114.184 96.94C115.157 96.9533 115.891 96.76 116.384 96.36C116.891 95.9467 117.144 95.3467 117.144 94.56C117.144 93.7733 116.897 93.2 116.404 92.84C115.911 92.4667 115.171 92.2733 114.184 92.26L111.444 92.22V96.9L114.184 96.94ZM125.693 98.1C124.653 98.1 123.72 97.8733 122.893 97.42C122.08 96.9533 121.44 96.32 120.973 95.52C120.507 94.7067 120.273 93.78 120.273 92.74C120.273 91.6867 120.507 90.76 120.973 89.96C121.44 89.16 122.08 88.5333 122.893 88.08C123.72 87.6267 124.653 87.4 125.693 87.4C126.587 87.4 127.393 87.5733 128.113 87.92C128.833 88.2667 129.4 88.7867 129.813 89.48L128.753 90.2C128.393 89.6667 127.947 89.2733 127.413 89.02C126.88 88.7667 126.3 88.64 125.673 88.64C124.927 88.64 124.253 88.8133 123.653 89.16C123.053 89.4933 122.58 89.9667 122.233 90.58C121.887 91.1933 121.713 91.9133 121.713 92.74C121.713 93.5667 121.887 94.2867 122.233 94.9C122.58 95.5133 123.053 95.9933 123.653 96.34C124.253 96.6733 124.927 96.84 125.673 96.84C126.3 96.84 126.88 96.7133 127.413 96.46C127.947 96.2067 128.393 95.82 128.753 95.3L129.813 96.02C129.4 96.7 128.833 97.22 128.113 97.58C127.393 97.9267 126.587 98.1 125.693 98.1ZM138.991 98V94.22L139.251 94.52H135.691C134.345 94.52 133.291 94.2267 132.531 93.64C131.771 93.0533 131.391 92.2 131.391 91.08C131.391 89.88 131.798 88.9867 132.611 88.4C133.425 87.8 134.511 87.5 135.871 87.5H140.291V98H138.991ZM131.311 98L134.191 93.96H135.671L132.851 98H131.311ZM138.991 93.8V88.32L139.251 88.74H135.911C134.938 88.74 134.178 88.9267 133.631 89.3C133.098 89.6733 132.831 90.28 132.831 91.12C132.831 92.68 133.825 93.46 135.811 93.46H139.251L138.991 93.8Z" fill="#E4DAC9"/>
<path d="M156.354 114.354C156.549 114.158 156.549 113.842 156.354 113.646L153.172 110.464C152.976 110.269 152.66 110.269 152.464 110.464C152.269 110.66 152.269 110.976 152.464 111.172L155.293 114L152.464 116.828C152.269 117.024 152.269 117.34 152.464 117.536C152.66 117.731 152.976 117.731 153.172 117.536L156.354 114.354ZM77 114.5H156V113.5H77V114.5Z" fill="#E4DAC9"/>
<defs>
<radialGradient id="paint0_radial_21_25" cx="0" cy="0" r="1" gradientUnits="userSpaceOnUse" gradientTransform="translate(96.5 96.5) rotate(89.7031) scale(96.5013)">
<stop stop-color="#12332E"/>
<stop offset="1" stop-color="#061311"/>
</radialGradient>
<linearGradient id="paint1_linear_21_25" x1="0" y1="96.5" x2="193" y2="96.5" gradientUnits="userSpaceOnUse">
<stop stop-color="#E4DAC9"/>
<stop offset="1" stop-color="#D8BA9E"/>
</linearGradient>
</defs>
</svg>
