<svg width="20" height="20" viewBox="0 0 20 20" fill="none" xmlns="http://www.w3.org/2000/svg">
<g clip-path="url(#clip0_21_293)">
<path d="M10 22.0991C8.26942 22.0991 6.57769 21.5859 5.13876 20.6245C3.69983 19.663 2.57832 18.2965 1.91606 16.6976C1.25379 15.0988 1.08051 13.3394 1.41813 11.6421C1.75575 9.94475 2.58911 8.38565 3.81282 7.16194C5.03653 5.93823 6.59563 5.10487 8.29296 4.76725C9.9903 4.42963 11.7496 4.60291 13.3485 5.26518C14.9473 5.92745 16.3139 7.04896 17.2754 8.48789C18.2368 9.92682 18.75 11.6185 18.75 13.3491C18.75 15.6698 17.8281 17.8954 16.1872 19.5363C14.5462 21.1773 12.3206 22.0991 10 22.0991ZM10 5.84913C8.51664 5.84913 7.0666 6.28899 5.83323 7.1131C4.59986 7.93721 3.63856 9.10855 3.07091 10.479C2.50325 11.8494 2.35473 13.3574 2.64411 14.8123C2.9335 16.2672 3.64781 17.6035 4.6967 18.6524C5.7456 19.7013 7.08197 20.4156 8.53683 20.705C9.99168 20.9944 11.4997 20.8459 12.8701 20.2782C14.2406 19.7106 15.4119 18.7493 16.236 17.5159C17.0601 16.2825 17.5 14.8325 17.5 13.3491C17.5 11.36 16.7098 9.45235 15.3033 8.04582C13.8968 6.6393 11.9891 5.84913 10 5.84913Z" fill="#E4DAC9"/>
<path d="M12.8688 17.0991L9.375 13.6054V7.72412H10.625V13.0866L13.75 16.2179L12.8688 17.0991Z" fill="#E4DAC9"/>
</g>
<defs>
<clipPath id="clip0_21_293">
<rect width="20" height="19.9147" fill="white" transform="translate(0 0.0869141)"/>
</clipPath>
</defs>
</svg>
