<svg width="92" height="92" viewBox="0 0 92 92" fill="none" xmlns="http://www.w3.org/2000/svg">
<g filter="url(#filter0_d_43_3517)">
<g filter="url(#filter1_d_43_3517)">
<circle cx="46" cy="42" r="36" fill="url(#paint0_radial_43_3517)" shape-rendering="crispEdges"/>
</g>
<path d="M46.3536 28.6464C46.1583 28.4512 45.8417 28.4512 45.6464 28.6464L42.4645 31.8284C42.2692 32.0237 42.2692 32.3403 42.4645 32.5355C42.6597 32.7308 42.9763 32.7308 43.1716 32.5355L46 29.7071L48.8284 32.5355C49.0237 32.7308 49.3403 32.7308 49.5355 32.5355C49.7308 32.3403 49.7308 32.0237 49.5355 31.8284L46.3536 28.6464ZM46.5 55L46.5 29L45.5 29L45.5 55L46.5 55Z" fill="#E4DAC9"/>
</g>
<defs>
<filter id="filter0_d_43_3517" x="0" y="0" width="92" height="92" filterUnits="userSpaceOnUse" color-interpolation-filters="sRGB">
<feFlood flood-opacity="0" result="BackgroundImageFix"/>

<feOffset dy="4"/>
<feGaussianBlur stdDeviation="5"/>
<feComposite in2="hardAlpha" operator="out"/>
<feColorMatrix type="matrix" values="0 0 0 0 0.118339 0 0 0 0 0.298333 0 0 0 0 0.271061 0 0 0 1 0"/>
<feBlend mode="normal" in2="BackgroundImageFix" result="effect1_dropShadow_43_3517"/>
<feBlend mode="normal" in="SourceGraphic" in2="effect1_dropShadow_43_3517" result="shape"/>
</filter>
<filter id="filter1_d_43_3517" x="0" y="0" width="92" height="92" filterUnits="userSpaceOnUse" color-interpolation-filters="sRGB">
<feFlood flood-opacity="0" result="BackgroundImageFix"/>
<feColorMatrix in="SourceAlpha" type="matrix" values="0 0 0 0 0 0 0 0 0 0 0 0 0 0 0 0 0 0 127 0" result="hardAlpha"/>
<feOffset dy="4"/>
<feGaussianBlur stdDeviation="5"/>
<feComposite in2="hardAlpha" operator="out"/>
<feColorMatrix type="matrix" values="0 0 0 0 0.118339 0 0 0 0 0.298333 0 0 0 0 0.271061 0 0 0 1 0"/>
<feBlend mode="normal" in2="BackgroundImageFix" result="effect1_dropShadow_43_3517"/>
<feBlend mode="normal" in="SourceGraphic" in2="effect1_dropShadow_43_3517" result="shape"/>
</filter>
<radialGradient id="paint0_radial_43_3517" cx="0" cy="0" r="1" gradientUnits="userSpaceOnUse" gradientTransform="translate(46 42) rotate(89.7031) scale(36.0005)">
<stop stop-color="#12332E"/>
<stop offset="1" stop-color="#061311" stop-opacity="0.5"/>
</radialGradient>
</defs>
</svg>
