<svg width="21" height="20" viewBox="0 0 21 20" fill="none" xmlns="http://www.w3.org/2000/svg">
<path d="M18.2586 19.9828H2.98087C2.27798 19.9828 1.67788 19.7479 1.18056 19.2781C0.683232 18.8083 0.43457 18.2415 0.43457 17.5775V3.14566C0.43457 2.4817 0.683232 1.91482 1.18056 1.44504C1.67788 0.97525 2.27798 0.740356 2.98087 0.740356H18.2586C18.9615 0.740356 19.5616 0.97525 20.059 1.44504C20.5563 1.91482 20.8049 2.4817 20.8049 3.14566V17.5775C20.8049 18.2415 20.5563 18.8083 20.059 19.2781C19.5616 19.7479 18.9615 19.9828 18.2586 19.9828ZM6.80031 7.95627V6.15229C6.80031 5.81405 6.6909 5.48207 6.47208 5.15635C6.25326 4.83063 6.01122 4.59887 5.74599 4.46106C5.48075 4.32326 5.27519 4.317 5.1293 4.44227L3.67712 5.83284C3.27926 6.20867 3.05381 6.7129 3.00076 7.34555C2.94771 7.9782 3.05049 8.66722 3.3091 9.41261C3.56771 10.158 3.98214 10.9472 4.55241 11.7803C5.12267 12.6134 5.80566 13.4058 6.60138 14.1575C7.3971 14.9091 8.23592 15.5543 9.11784 16.093C9.99976 16.6317 10.8353 17.0263 11.6243 17.2768C12.4134 17.5274 13.1428 17.6276 13.8126 17.5775C14.4823 17.5274 15.0161 17.3144 15.414 16.9386L16.886 15.548C17.0187 15.4227 17.012 15.2317 16.8661 14.9749C16.7203 14.7181 16.4749 14.4863 16.1301 14.2796C15.7853 14.0729 15.4338 13.9695 15.0758 13.9695H13.1661L11.873 14.7212C11.2762 14.5709 10.5402 14.1637 9.6649 13.4998C8.78961 12.8358 8.00052 12.0904 7.29763 11.2636C6.59475 10.4367 6.16374 9.74146 6.00459 9.17772L6.80031 7.95627ZM14.3994 10.9629L15.6925 11.1696C15.5864 9.66629 14.9697 8.38221 13.8424 7.31736C12.7151 6.25251 11.3624 5.66998 9.78425 5.56976L9.98318 6.7912C11.137 6.92901 12.125 7.38627 12.9472 8.16298C13.7695 8.93969 14.2535 9.873 14.3994 10.9629ZM10.2219 8.05023L10.4606 9.40321C10.9778 9.64124 11.3691 10.0108 11.6343 10.5119L13.0666 10.7374C12.8942 10.0734 12.5527 9.5003 12.0421 9.01799C11.5315 8.53568 10.9248 8.21309 10.2219 8.05023ZM9.34661 3.14566L9.56543 4.36711C10.8916 4.39216 12.115 4.72101 13.2357 5.35366C14.3563 5.9863 15.2515 6.83192 15.9212 7.8905C16.591 8.94909 16.9391 10.1048 16.9656 11.3575L18.2586 11.5642C18.2586 10.4242 18.0232 9.33431 17.5524 8.29452C17.0816 7.25473 16.4484 6.359 15.6527 5.60734C14.857 4.85568 13.9087 4.25749 12.808 3.81276C11.7072 3.36803 10.5534 3.14566 9.34661 3.14566Z" fill="#E4DAC9"/>
</svg>
